/* XPM */
static char *bfb624c0cdfb43d4de19025e5ca461c6G2zU5NMqKS7Hcewz[] = {
/* columns rows colors chars-per-pixel */
"40 40 152 2 ",
"   c #1E2032",
".  c #19203A",
"X  c #20212F",
"o  c #282D3A",
"O  c #282D3E",
"+  c #1E1E4A",
"@  c #0E1756",
"#  c #1D244C",
"$  c #1F2252",
"%  c #232244",
"&  c #272945",
"*  c #2A2A45",
"=  c #23294B",
"-  c #2C3043",
";  c #363A4A",
":  c #37394E",
">  c #252A53",
",  c #22245A",
"<  c #373C54",
"1  c #323C5C",
"2  c #121963",
"3  c #151E76",
"4  c #1D2466",
"5  c #1A216D",
"6  c #162275",
"7  c #1A2172",
"8  c #252A66",
"9  c #363A6E",
"0  c #242C74",
"q  c #263173",
"w  c #24307B",
"e  c #2A337C",
"r  c #313778",
"t  c #38414E",
"y  c #384053",
"u  c #34455C",
"i  c #3B4C63",
"p  c #3A4573",
"a  c #3F497A",
"s  c #444B5C",
"d  c #444B62",
"f  c #4A4F62",
"g  c #4E5766",
"h  c #4C5669",
"j  c #525D6F",
"k  c #414A7E",
"l  c #4B5D7B",
"z  c #55606E",
"x  c #4D637F",
"c  c #596776",
"v  c #5C6774",
"b  c #616A7A",
"n  c #172187",
"m  c #182084",
"M  c #172189",
"N  c #19208A",
"B  c #172395",
"V  c #192093",
"C  c #19249B",
"Z  c #1B2898",
"A  c #232C82",
"S  c #2B3783",
"D  c #353F8A",
"F  c #272E96",
"G  c #28339A",
"H  c #1821A5",
"J  c #1522AC",
"K  c #1E2AAC",
"L  c #1F30A3",
"P  c #0F22BF",
"I  c #1223B4",
"U  c #1222BA",
"Y  c #222DA9",
"T  c #2A33A6",
"R  c #2835B2",
"E  c #2B3BB5",
"W  c #2233BC",
"Q  c #2938B8",
"!  c #34408A",
"~  c #39458A",
"^  c #3A499B",
"/  c #5B6789",
"(  c #626D80",
")  c #657483",
"_  c #6A7585",
"`  c #63708A",
"'  c #6C7B8A",
"]  c #717E8D",
"[  c #647EBD",
"{  c #0E25C3",
"}  c #1324C5",
"|  c #152CCA",
" . c #192BC8",
".. c #152AD1",
"X. c #182DD2",
"o. c #1C32D9",
"O. c #2C3AC3",
"+. c #2636CB",
"@. c #2E3BCB",
"#. c #2A3AD3",
"$. c #2034DE",
"%. c #2D3DDC",
"&. c #303DD7",
"*. c #303DDD",
"=. c #1E37E4",
"-. c #2236E3",
";. c #2439E6",
":. c #2237EC",
">. c #263AEA",
",. c #2B3EEC",
"<. c #2B3FF2",
"1. c #2A3FF5",
"2. c #2D43EC",
"3. c #3142EF",
"4. c #2C42F5",
"5. c #2C41FA",
"6. c #3243F3",
"7. c #5766CA",
"8. c #5D6DD6",
"9. c #5D6FDA",
"0. c #5D71E6",
"q. c #627AE6",
"w. c #6F818D",
"e. c #748393",
"r. c #758894",
"t. c #7A8A95",
"y. c #7B8798",
"u. c #7C8C9D",
"i. c #7E909E",
"p. c #7E92A3",
"a. c #7492C5",
"s. c #7BA3DE",
"d. c #6984E7",
"f. c #7491E5",
"g. c #7B98E9",
"h. c #6B84F1",
"j. c #80909F",
"k. c #8294A3",
"l. c #869BA6",
"z. c #889CA7",
"x. c #8396A8",
"c. c #8897AC",
"v. c #879BAA",
"b. c #889BAA",
"n. c #8198CA",
"m. c #85A6DD",
"M. c #85ABFA",
"N. c #87B7F8",
"B. c #8AB4FC",
"V. c #8CBAFB",
"C. c #93B9FC",
"Z. c #B4CCFE",
/* pixels */
"b.b.b.b.b.b.b.b.b.b.v.v.v.v.b.b.v.v.v.b.b.b.b.v.v.v.v.b.b.b.b.b.b.b.b.b.b.b.b.b.",
"b.b.b.b.b.b.b.b.b.b.v.b.v.v.b.b.v.v.v.v.v.b.b.v.v.b.v.b.b.b.b.b.b.b.b.b.b.b.b.v.",
"b.b.b.b.b.b.b.b.b.b.b.b.b.b.b.b.v.v.b.b.v.v.b.b.b.v.b.b.b.b.b.b.b.b.b.b.b.b.b.v.",
"b.b.b.b.b.b.b.b.b.b.b.b.b.b.c.b.v.v.b.b.b.b.b.b.v.v.v.v.b.b.b.b.b.b.b.b.b.b.b.z.",
"b.v.b.b.b.b.b.b.b.b.b.b.k.] ' ' ] ' ' ' ' _ ' ' i.l.v.v.b.b.b.b.b.b.b.b.b.b.b.v.",
"b.b.b.b.l.v.b.v.b.b.l.u.j * & = & = & & & & = * s v t.x.v.v.v.b.v.b.b.b.b.b.b.b.",
"b.b.b.b.b.v.v.v.c.i.j < = 2 N V C C C R Q Q Q E A > < h t.v.b.b.v.b.b.b.b.b.b.v.",
"b.b.b.b.b.v.l.v.] s . 8 C I  .$.:.4.4.5.5.5.5.5.,.@.F 8 i e.v.v.v.b.b.b.b.b.b.v.",
"b.b.b.b.b.v.v.] < % 6 J } ..>.5.5.5.5.5.5.5.5.4.5.5.4.*.S : _ v.v.b.b.b.b.b.b.z.",
"b.b.b.b.b.b.p.g % M I { X.,.1.5.5.5.5.5.5.5.5.5.5.5.5.6.O., f u.v.v.b.b.b.b.b.v.",
"b.b.b.b.b.b._ * 7 I { o.<.5.1.5.5.5.5.5.5.5.5.5.5.5.5.5.6.G & ( v.v.v.v.b.b.b.v.",
"b.b.b.b.v.k.b & M P ..>.5.5.5.4.5.5.5.5.5.5.5.4.5.4.%.+.@.m   c p.v.v.v.b.b.b.v.",
"b.b.b.b.l.w.: 2 J } $.4.5.5.5.5.5.5.5.5.5.5.5.4.4.Y @ 4 7 , . o ) v.v.v.b.b.b.b.",
"b.b.b.b.b.' O 3 U } ,.5.5.5.5.5.5.5.5.5.5.5.5.5.#.2 r 7.d.f.u.y c v.v.v.b.b.b.x.",
"b.b.b.b.b.' O 7 U } ;.5.5.5.5.5.5.5.5.5.5.5.4.#.Z ^ 9.h.g.B.B.a.x ) k.b.b.b.b.b.",
"b.b.b.b.b.' * 5 U } ;.5.5.5.5.5.5.5.5.5.5.5.2.n ~ 9.q.M.V.C.Z.Z.n.u w.b.b.b.b.l.",
"b.b.b.b.v.' O 7 U } ;.5.5.5.5.5.5.5.1.5.5.5.2.3 ! 0.d.B.C.C.Z.Z.m.u ' v.v.v.b.v.",
"b.b.b.b.v.' & 5 U  .;.5.5.1.5.5.5.5.5.5.5.5.2.6 ! 0.d.N.B.V.C.V.s.u w.v.b.b.b.b.",
"b.b.b.b.v.' O 7 U } >.5.5.5.5.5.5.5.5.5.5.5.2.3 ~ 0.0.g.B.C.C.N.s.u ' v.b.b.b.v.",
"b.b.b.v.v.' O 7 U } >.5.5.5.5.1.5.1.5.5.5.5.4.B ! 8.0.d.M.B.B.V.a.i r.b.b.b.b.v.",
"b.b.b.b.b.' * 5 U } ;.4.5.5.5.5.5.5.5.5.5.5.5.%.L ! 7.9.d.g.g.[ l ] v.b.b.b.b.b.",
"b.b.b.b.v.' O 5 U } ;.5.5.5.5.5.1.5.5.5.1.5.5.5.2.Y 6 w 0 q 8 . v b.v.b.b.b.b.b.",
"b.b.b.b.v.' O 5 U  .;.5.5.5.5.5.5.5.5.1.5.5.5.5.5.4.+.O.W Q 5 X ) b.b.b.b.b.b.x.",
"b.b.b.b.v.' - 5 U } ;.5.5.5.5.5.5.5.5.5.5.5.5.5.5.5.5.5.5.4.F * ) v.b.b.b.b.b.z.",
"b.b.b.b.b.j.z 4 J } ..,.5.5.5.5.1.5.5.5.5.5.5.5.5.5.5.5.5.2.G O ) v.b.b.b.b.b.b.",
"b.v.b.b.l.b.) # N U } $.5.5.5.5.5.5.5.5.5.5.5.5.5.5.5.5.5.%.0 t e.b.b.b.b.b.b.b.",
"b.b.b.b.v.v.t.s 3 U { } $.<.5.5.5.5.5.5.5.5.5.5.5.5.4.5.2.G % c c.z.b.b.b.b.b.x.",
"b.b.b.b.v.v.b.v $ C P P } o.=.5.5.5.5.5.5.5.5.5.5.#.+.O.T , - _ z.b.b.b.b.b.b.v.",
"b.b.b.b.b.v.v.w.< 4 J P | <.1.5.5.5.5.5.5.1.5.5.,.K 7 , % ; b b.b.b.b.b.b.b.b.v.",
"b.b.b.b.b.v.v.l.c = V { | 1.5.5.5.1.5.5.5.5.5.5.4.;.K + ; ] b.b.z.b.b.b.b.b.b.b.",
"b.b.b.b.v.v.v.v.u.d 6 I ..1.5.5.5.5.5.1.5.5.5.4.5.3.T = z x.b.b.b.b.b.b.b.b.b.b.",
"b.b.v.v.v.v.v.v.c.h # V } -.5.5.5.5.5.5.5.5.5.5.5.*.e c k.v.b.b.b.b.b.b.b.b.b.b.",
"b.b.b.b.b.b.v.z.v.r.s 8 J ..<.5.4.5.5.5.5.5.4.5.4.Q 9 u.b.v.v.b.v.v.b.b.b.b.b.k.",
"b.b.v.b.b.b.v.v.b.b.y.1 n U X.=.4.4.5.5.5.5.5.4.%.S h p.b.b.b.b.v.b.b.b.b.b.b.b.",
"b.b.b.b.b.b.b.b.b.b.k.( 1 A H J U  .%.%.%.*.&.E D / p.v.b.b.b.b.b.b.b.b.b.b.b.b.",
"b.b.b.b.b.b.b.b.b.b.b.b.y.` a p p p a a ~ k k ` r.x.v.l.b.b.b.b.b.b.b.b.b.b.b.b.",
"b.b.b.b.b.b.b.z.b.b.v.v.v.c.p.p.l.p.p.k.p.p.p.c.b.b.v.b.b.b.b.b.b.b.b.b.b.b.b.b.",
"b.b.b.b.b.b.b.b.b.b.v.b.b.b.v.v.v.v.v.v.v.v.v.b.v.v.b.b.b.b.b.b.b.b.b.b.b.b.b.b.",
"b.b.b.b.b.b.b.b.b.b.b.b.b.b.v.v.b.b.b.b.b.b.b.b.v.v.b.b.b.b.b.b.b.b.b.b.b.b.b.b.",
"b.b.b.b.b.b.b.b.b.b.b.b.b.b.v.v.b.b.b.b.b.b.b.b.b.b.b.b.b.b.b.b.b.b.b.b.b.b.z.b."
};
