/* XPM */
static char *_8fea2a0d63f4a2aae0356c5feccc2b4GidcckN4tLLFBSGT[] = {
/* columns rows colors chars-per-pixel */
"40 40 130 2 ",
"   c #1F243F",
".  c #21243E",
"X  c #2A2A3B",
"o  c #1D1F57",
"O  c #211F43",
"+  c #1E2243",
"@  c #1C215D",
"#  c #222341",
"$  c #242B49",
"%  c #2C3149",
"&  c #35394B",
"*  c #22265B",
"=  c #313857",
"-  c #343859",
";  c #191F75",
":  c #181F78",
">  c #1B2062",
",  c #19216C",
"<  c #1E296D",
"1  c #192077",
"2  c #1E2872",
"3  c #1B2078",
"4  c #222A61",
"5  c #282E66",
"6  c #2A2D69",
"7  c #293366",
"8  c #263279",
"9  c #3E4453",
"0  c #4A4F5E",
"q  c #4C515A",
"w  c #475060",
"e  c #4B5464",
"r  c #4E5668",
"t  c #50566C",
"y  c #565F6E",
"u  c #4A5474",
"i  c #495679",
"p  c #565E71",
"a  c #56606E",
"s  c #59626F",
"d  c #576272",
"f  c #596373",
"g  c #59647A",
"h  c #5C6A7C",
"j  c #67717E",
"k  c #1A2184",
"l  c #16238B",
"z  c #19238B",
"x  c #162395",
"c  c #16229B",
"v  c #19219A",
"b  c #232F9D",
"n  c #2D3694",
"m  c #243099",
"M  c #1623A5",
"N  c #1822A2",
"B  c #1422AB",
"V  c #0F23BD",
"C  c #1622B1",
"Z  c #1123BE",
"A  c #2B37AC",
"S  c #2C38AD",
"D  c #2B37B5",
"F  c #2C38B0",
"G  c #2A37BB",
"H  c #2739BD",
"J  c #2A3ABC",
"K  c #556582",
"L  c #5D6C84",
"P  c #5E6B89",
"I  c #616C83",
"U  c #697280",
"Y  c #6A7688",
"T  c #6B7A8C",
"R  c #0F23C4",
"E  c #1223C2",
"W  c #182CC7",
"Q  c #1526CC",
"!  c #1528CB",
"~  c #132BD4",
"^  c #192DD5",
"/  c #1D2FD8",
"(  c #1B32D6",
")  c #1D31DD",
"_  c #2A3AC7",
"`  c #2133DF",
"'  c #2336E2",
"]  c #263AE5",
"[  c #2F3FE5",
"{  c #243BEA",
"}  c #293FEE",
"|  c #313EE0",
" . c #293EF2",
".. c #2E43EC",
"X. c #2B41F3",
"o. c #2C41FA",
"O. c #3041FA",
"+. c #70808E",
"@. c #788896",
"#. c #7C899A",
"$. c #7B8D9C",
"%. c #7B8E9D",
"&. c #7D8D9E",
"*. c #7F919E",
"=. c #7E909F",
"-. c #7F92A3",
";. c #82929D",
":. c #8191A2",
">. c #8294A4",
",. c #8397A6",
"<. c #8498A7",
"1. c #859BA7",
"2. c #869CA7",
"3. c #889BA7",
"4. c #8596A9",
"5. c #8897A9",
"6. c #8799A8",
"7. c #849AA9",
"8. c #879BAB",
"9. c #859CA9",
"0. c #869DAA",
"q. c #869CAB",
"w. c #879CAB",
"e. c #889BAA",
"r. c #899AAB",
"t. c #899CAA",
"y. c #889CAB",
"u. c #899CAB",
"i. c #889AAC",
"p. c #899CAC",
/* pixels */
"e.e.e.e.e.e.e.e.e.e.e.e.e.e.e.e.e.e.e.e.e.e.e.e.e.e.e.e.e.e.e.e.e.e.e.e.e.e.e.e.",
"e.e.e.e.e.e.e.e.e.e.e.8.8.8.e.e.e.e.8.8.8.8.e.e.1.8.e.y.e.e.e.e.e.e.e.e.e.e.e.1.",
"e.e.e.e.e.e.e.e.e.e.8.8.e.e.e.e.e.e.8.1.8.e.3.3.q.q.y.y.e.e.e.e.e.e.e.e.e.e.e.8.",
"e.e.e.e.e.e.e.e.e.e.e.8.y.y.y.y.q.y.y.e.y.y.y.y.q.q.2.q.e.e.e.e.e.e.e.e.e.e.e.8.",
"e.e.e.e.e.e.e.e.y.y.y.,.&.&.$.$.&.$.#.$.$.$.$.$.$.$.$.,.e.y.e.e.e.e.e.e.e.e.e.5.",
"e.e.e.e.e.e.e.e.q.p.=.y & & & & & & & & & & & & & & & p &.y.e.e.e.e.e.e.e.e.e.3.",
"e.e.e.e.e.e.e.3.p.@.w # @ 3 3 1 ; 3 3 3 ; ; ; 3 3 ; o . 0 @.e.y.8.8.e.e.e.e.e.e.",
"e.e.e.e.e.8.q.1.T 9 # , M Z E ^ ' ] ] ] ] [ ' W E E M > O q +.1.e.e.e.e.e.e.e.,.",
"e.e.e.e.8.q.;.j - > k B R ~ { X.o.o.o.o.o.o.o.o.{ ~ R C k @ - j e.e.e.e.e.e.e.8.",
"e.e.e.e.e.-.g % > M V E ^  .o.O.o.o.o.o.o.o.o. .o. .( V Z N @ % g :.e.e.e.e.e.e.",
"e.8.e.e.4.d $ k B Z ! ) o.o. .o.o.o.o.o.o.o.o.o.o.o.X.) E Z B k $ d 1.q.e.e.e.e.",
"e.e.8.8.,.e O v E V ^ X.o.o.o.o.o.o.o.o.o.o.o.o.o.o.o.o.^ E E x + r 1.q.e.e.e.e.",
"e.e.8.8.&.0 O x Z Q } o.o.o.o.o.o.o.o.o.o.o.o.o. .o.o.o.{ ! Z v O 0 &.q.8.e.8.8.",
"e.e.8.1.g X + x E ) o.O.o.o.o.o.o.o.o.o.o.o.o.o.o.o.o.o.o.( E c O X h 8.8.3.8.1.",
"e.8.e.,.y . , C !  .O.o.o.o.o.o.o.o.o.o.o. .o.o.o.o.o.o.o...Q B , . d 1.8.3.8.8.",
"8.8.e.8.a # z Z !  .o.o.o.o.o.o.o.o.o.o.o.o.o.o.o.o.o.o.o. .Q Z z . d 8.8.e.e.1.",
"1.8.8.7.y O l Z Q  .o.o.o.o.o.o.o.o.o.o.o.o.o.o.o.o.o.o.o. .~ V l . d e.8.e.8.8.",
"8.8.i.7.y O l Z ^ X.o.o.o.o.o.o.o.o.o.o. .o.o.o.o.o.o.o.o. .R R l . s 1.e.e.e.1.",
"7.q.8.7.y # l Z Q  .o.o.o.o.o.o.o.o.o.o.o.o.o.o.o.o.o.o.o.} ! R l . s e.q.i.e.8.",
"7.2.8.8.y # l Z Q  .O.o.o. . .o.o.o.o.o.o.o.o.o.o. .o.o.o.X.! R z . s 1.q.e.e.8.",
"q.2.q.7.y . l V Q  .o.o.o.o.o.o.o.o.o. .o.o.o.o.o.o.o.o.o.X.! V z   s 1.8.e.8.8.",
"1.q.q.7.y # l V Q  .o.o.o.o.o.o.o.o.o.o.o.o.o. . .o.o.o.o.X.! V l . s 1.8.e.8.1.",
"q.q.q.q.y # l Z Q  .o.o.o.o.o.o.o.o.o.o.o.o.o.o.o.o.o.o.o. .! V l . s 8.8.e.8.8.",
"1.1.8.8.y . l E ~  .O.o.o. .o.o.o.o.o.o.o.o.o.o.o.o.o.o.o...! Z l . s 1.8.e.e.1.",
"q.2.8.7.a . l V ~  .o.o.o.o.o.o.o.o.o.o.o.o.o.o.o.o.o.o.o. .! R l . s 1.y.e.8.8.",
"1.q.8.7.y . l V Q  .O.o.o.o.o.o.o.o.o.o.o.X.o.o.o.o.o.o.o.X.! V l   s 1.e.e.e.1.",
"2.2.q.7.y . l V Q  .o.o.o. .o.o.o.o.X.X.o.o.o.o.o.o. .o.o. .! Z z . s 8.q.e.e.8.",
"q.q.q.8.y . l V Q X.O.o.o.o.o.o.o.X...| ..X.o.o.o.o.o.o.o...! Z l . s 1.q.e.e.8.",
"1.8.e.4.y # l V Q  .o.o.o.o.o.o.o._ < * 2 _ o.o.o.o.o.o.o.X.E E l . s 1.8.5.8.8.",
"8.8.8.1.y . l V ! } o.o.o.o.o.o.o.S = q - D o.o.o.o.o.o.o.X.! R z + s 8.8.e.e.3.",
"e.8.8.3.y + z Z !  .o.o.o.o.o.o.X.D i ;.u G X.o.o.o.o.o.o. .! V k + s 3.q.8.1.e.",
"8.8.e.8.y O l Z ^ X.o.o.o.o.o.o.o.D i -.i J o.o.o.X.o.o.o.X.W V z + d 3.q.8.e.e.",
"1.e.e.3.s . k Z E ' o.o.o.o.o.o.X.A u ;.u A O.o.o.o.o.o.X.` E Z k # f y.5.e.e.e.",
"8.e.8.8.#.r * M E E / X.o.o.o...G 6 f ,.p 5 H ..o.o.o.X./ Q Z N 4 t &.y.y.e.e.3.",
"e.e.e.e.e.;.K 8 z z z m S F S n 7 d =.8.&.p 7 n S S S m z z z 8 K >.y.e.e.e.e.e.",
"e.e.e.e.8.8.,.T L L I L h L I I Y ,.e.e.p.,.Y L I L P P L L h T 5.e.e.e.e.e.e.e.",
"e.e.e.e.e.3.e.e.q.2.1.8.w.w.w.w.q.8.8.e.e.8.2.e.q.q.1.1.3.q.q.8.e.e.e.e.e.e.e.e.",
"e.e.e.e.e.e.e.8.q.q.2.8.p.p.i.w.e.8.8.8.8.8.i.3.y.y.e.8.q.q.q.2.e.e.e.e.e.e.e.e.",
"e.e.e.e.e.8.8.e.y.e.e.8.e.e.8.8.e.e.q.q.8.e.e.3.y.e.8.8.q.e.8.e.e.e.e.e.e.e.e.e.",
"e.e.e.e.e.e.e.e.e.e.e.e.e.e.e.e.e.e.8.e.e.e.e.e.y.y.e.e.y.e.e.e.e.e.e.e.e.e.e.e."
};
