/* XPM */
static char *_022d3ca38d34216aaaed9128be7fdb4XQw8NCeUYLjfe7P6[] = {
/* columns rows colors chars-per-pixel */
"40 40 186 2 ",
"   c #221F39",
".  c #1F2038",
"X  c #262636",
"o  c #24253C",
"O  c #262B3F",
"+  c #2A2C3F",
"@  c #1C1F4E",
"#  c #1D1E50",
"$  c #1C214E",
"%  c #1B2054",
"&  c #1C2358",
"*  c #222645",
"=  c #292C41",
"-  c #2E3149",
";  c #323647",
":  c #36394D",
">  c #393B49",
",  c #232854",
"<  c #2B3359",
"1  c #32395D",
"2  c #121B62",
"3  c #1E1E63",
"4  c #191F79",
"5  c #1A2162",
"6  c #1C246C",
"7  c #192272",
"8  c #17227C",
"9  c #1A277B",
"0  c #252A68",
"q  c #252D6E",
"w  c #323363",
"e  c #242C78",
"r  c #2B3772",
"t  c #3D4352",
"y  c #3C445D",
"u  c #3C4275",
"i  c #3C4478",
"p  c #444A5C",
"a  c #46505F",
"s  c #474C65",
"d  c #4A5265",
"f  c #4E586C",
"g  c #545C6A",
"h  c #444E78",
"j  c #565F70",
"k  c #596272",
"l  c #57647E",
"z  c #59637D",
"x  c #5F6A79",
"c  c #616B7A",
"v  c #63707F",
"b  c #181F87",
"n  c #162081",
"m  c #1A2284",
"M  c #1E2A81",
"N  c #16248A",
"B  c #1D2A8B",
"V  c #162293",
"C  c #1A2494",
"Z  c #1C2897",
"A  c #14229D",
"S  c #19259A",
"D  c #1E299B",
"F  c #202C84",
"G  c #2A3689",
"H  c #242D98",
"J  c #293493",
"K  c #29329E",
"L  c #333C90",
"P  c #161FA1",
"I  c #1522A1",
"U  c #1F2DA2",
"Y  c #1622AD",
"T  c #1821AB",
"R  c #1F30AD",
"E  c #1422B6",
"W  c #1A27B7",
"Q  c #1325BD",
"!  c #1F32B8",
"~  c #2129A8",
"^  c #2B35AA",
"/  c #2B39AE",
"(  c #212FB3",
")  c #2939B4",
"_  c #2C37B8",
"`  c #2938B8",
"'  c #374599",
"]  c #44509D",
"[  c #576382",
"{  c #586381",
"}  c #5D6B83",
"|  c #606F81",
" . c #626F88",
".. c #677083",
"X. c #6A7485",
"o. c #697A8A",
"O. c #727E89",
"+. c #6F7D90",
"@. c #707C91",
"#. c #4C5CA4",
"$. c #4453A9",
"%. c #4956AC",
"&. c #4B5BAA",
"*. c #4C59B6",
"=. c #0E22C1",
"-. c #1324C2",
";. c #1225CA",
":. c #152AC9",
">. c #152BCE",
",. c #172CD2",
"<. c #192BD3",
"1. c #1C2FDC",
"2. c #1F31DF",
"3. c #2634C2",
"4. c #2C3BC4",
"5. c #2737CC",
"6. c #2738CF",
"7. c #2A3ACC",
"8. c #2738D1",
"9. c #2B3BD3",
"0. c #2133DE",
"q. c #2A3BD8",
"w. c #2436E4",
"e. c #2439E4",
"r. c #2D3EE5",
"t. c #253BEC",
"y. c #2B3DEB",
"u. c #263CF0",
"i. c #2A3FF3",
"p. c #2C41E3",
"a. c #2C42ED",
"s. c #3040ED",
"d. c #2C42F3",
"f. c #2C42FA",
"g. c #3143F5",
"h. c #5265C4",
"j. c #5669CC",
"k. c #5868CD",
"l. c #5A70CC",
"z. c #5D6DD6",
"x. c #5E6ED9",
"c. c #626DDF",
"v. c #5F70E3",
"b. c #6174E6",
"n. c #657BE2",
"m. c #697FEE",
"M. c #748692",
"N. c #798796",
"B. c #768998",
"V. c #7D8E9D",
"C. c #7B919D",
"Z. c #7C8EA1",
"A. c #7D92A0",
"S. c #6B87E7",
"D. c #6782EC",
"F. c #7698EF",
"G. c #7594F2",
"H. c #789CF7",
"J. c #799AF8",
"K. c #799BF9",
"L. c #7FA2FB",
"P. c #818E9E",
"I. c #8395A5",
"U. c #869BA6",
"Y. c #899BA7",
"T. c #8295A8",
"R. c #879AA9",
"E. c #869CA9",
"W. c #869CAA",
"Q. c #879DAB",
"!. c #889BAA",
"~. c #889BAB",
"^. c #889CAA",
"/. c #83A7FC",
"(. c #85ACFD",
"). c #88ADFC",
"_. c #89B6F7",
"`. c #86B3FD",
"'. c #89B3FD",
"]. c #93B7FA",
"[. c #95BCFB",
"{. c #9AB9FB",
"}. c #9DC2FD",
"|. c #A4C6FB",
" X c #ACCBFD",
".X c #BFD8FF",
/* pixels */
"!.!.!.!.!.!.!.!.!.!.!.!.!.!.^.^.^.^.^.^.^.Q.^.!.!.!.~.~.~.~.!.!.!.!.!.!.!.!.!.!.",
"!.!.!.!.!.!.!.!.!.!.!.!.!.!.~.~.~.^.Q.~.!.Q.^.!.!.!.Q.Q.!.!.^.!.!.!.!.!.!.!.!.R.",
"!.!.!.!.!.^.!.!.!.!.^.Y.^.!.~.~.Q.Q.Q.!.R.Q.Q.!.R.Q.R.Q.R.!.~.^.!.!.!.!.!.!.!.R.",
"!.!.!.!.!.R.R.!.!.!.^.I.B.M.M.M.M.M.M.M.M.M.M.M.M.M.M.M.A.!.~.~.!.!.!.!.!.!.!.R.",
"!.!.!.!.!.!.Q.Q.Y.^.I.c ; = = O = = = = O + = + = = = = s M.!.Y.R.~.~.Q.!.!.!.R.",
"!.!.!.!.!.R.R.Q.^.P.j + % 7 N 8 m H K K K K H B b b F 3 * t @.Y.R.Q.~.R.!.!.!.R.",
"!.!.Q.Q.R.Q.Q.Y.N.d o & V Q 1.t.t.d.f.f.f.f.d.u.y.t.w.Y 6 @ : ..R.R.R.R.!.!.!.R.",
"!.!.R.R.Q.R.Y.O.y & 7 I -.2.f.f.f.f.f.f.f.f.f.f.f.f.i.1.E b & < k I.Q.!.!.!.!.R.",
"Q.R.~.^.Q.T.X.: # N Q ;.0.d.f.f.f.f.f.f.f.f.f.f.d.f.f.a.<.Q T 5 * f V.^.^.!.R.R.",
"R.!.~.R.R.c - 6 A E ,.t.f.f.f.f.f.f.f.f.f.f.f.f.f.f.f.f.i.1.-.T m $ a C.^.!.Q.R.",
"!.!.~.^.Q.k o m =.;.w.f.f.d.d.d.d.u.t.a.d.d.a.a.d.d.d.f.f.d.<.=.T % > V.^.Q.Q.R.",
"!.!.!.!.I.g o 4 -.2.i.f.g.3.N 4 n 8 n n n 8 8 b n 8 U y.f.f.e.:.T @ > N.!.!.R.R.",
"Q.Q.R.R.X.- . m 2.i.f.s.( F ] &.&.#.#.#.#.#.#.%.&.%.L H q.f.d.2.T & X d Z.Q.R.R.",
"Q.Q.Q.E.x X % S t.f.r.~ G h.G.(.L.`.`.`.).).).{.'./.n.' B 5.d.t.W 8   t Z.R.R.R.",
"Q.U.R.R.x o 8 Q w.r.Z L l.H.`._.`.`.`.`._.'. X.X|._.(.S.$.9 3.d.<.A % t A.R.!.R.",
"Q.E.R.R.x o 8 -.w.q.2 %.D.(.`.`.`.`.`.`.'._.{. X{.{.}.G.x.q D f.<.I $ t A.R.!.!.",
"Q.Q.Q.R.x o 8 Q e.q.2 $.m.(.'.'.`.L.}.`.`.`.`.].].'.`.G.x.q Z a.:.P # t C.Q.Q.~.",
"E.R.~.Q.x o 8 Q e.q.2 $.m./.'.'.}.L.`.`.`.`.`._.[.'.`.G.z.q S a.,.A @ t A.R.Q.R.",
"E.E.R.R.x X 9 =.e.7.2 %.v.S./.(.`.`.`.`.`.`.`.`.'.(.F.n.x.q S d.,.A @ t C.R.E.Q.",
"E.E.U.Q.x O 8 -.e.p.N ' l.v.D.K.H.H.K.K.H.H.H.L.K.G.b.c.*.M ! a.>.A @ t C.Q.Q.R.",
"E.Q.~.Q.x o 7 Q e.f.p.Z G h.k.k.l.l.j.j.j.j.l.j.j.j.h.$.B ` d.d.<.A # t C.R.~.Q.",
"E.A.Q.Q.x * 8 Q e.f.f.p.~ e e 5 6 6 6 6 6 6 6 6 6 6 7 B 7.f.f.f.<.A # t C.~.~.R.",
"R.Q.Q.Q.x o 9 Q t.f.f.f.f.q.9.q.8.8.8.8.6.8.6.8.8.8.q.p.d.f.f.d.<.A % t C.Q.~.R.",
"E.R.Q.R.x o 8 -.e.f.f.f.f.i.f.f.f.f.f.f.f.f.f.f.f.f.f.f.f.f.f.d.,.A # t C.R.~.R.",
"E.E.~.Q.x o 4 ;.e.i.f.f.f.i.i.f.f.f.f.f.f.f.f.f.f.f.f.f.f.f.f.d.<.A @ t V.R.~.R.",
"E.E.Q.Q.x o 4 -.e.f.i.f.f.f.f.f.f.i.f.g.i.f.i.f.f.f.f.f.f.d.f.d.<.A @ t C.R.~.R.",
"E.Q.~.Q.x o 8 =.e.f.i.f.f.f.f.f.f.i.g.g.f.f.f.f.f.f.f.f.f.f.f.d.<.A # t C.Q.Q.!.",
"E.A.~.Q.x o 8 -.e.f.f.f.f.i.f.i.f.f.r.9.q.q.i.i.f.f.f.f.f.f.f.u.<.A # t C.R.~.~.",
"Q.R.Q.R.x o 8 -.e.f.f.f.i.f.i.f.f.s.J , * 0 8.f.f.i.f.d.f.f.f.d.<.A @ t V.~.~.R.",
"R.R.Q.R.x o 9 -.w.f.f.f.f.f.f.f.f.g.G p g w 7.i.f.f.f.f.f.f.f.u.<.A @ : V.~.~.R.",
"E.E.Q.Q.x o 8 Q w.f.i.f.f.f.f.f.f.s.J ..V.i 6.f.f.f.f.f.f.f.f.d.<.I # p V.Q.~.R.",
"E.E.R.R.x o 8 -.y.f.f.f.f.i.i.f.f.i.J  .A.i 7.f.f.i.f.f.f.f.f.d.>.A @ t A.R.~.R.",
"E.Q.Q.R.c O 7 Q <.d.i.f.f.f.f.f.f.p.G | V.u 4.d.f.f.f.f.f.d.f.i.>.V % t V.~.~.^.",
"R.R.Q.R.Z.g , V =.>.t.f.f.f.f.f.p.H < o.A.s e 4.d.f.f.f.f.f.d.2.Y 7 y o.Y.!.R.R.",
"~.R.R.~.!.T.} r N V D ^ / ) _ ) G 1 ..T.A.B.d q ^ _ ) ) ` ) ~ C M h N.Q.!.^.!.!.",
"~.~.R.~.!.!.I.o.{ [ l l { { { z z +.R.^.Q.Q.Z...x l l l z l z { } A.U.U.!.!.!.!.",
"~.R.!.!.!.~.!.!.!.R.Q.Y.!.!.U.U.!.!.U.R.!.Q.Q.!.R.U.!.~.Y.Y.~.Y.!.~.Q.R.!.!.!.!.",
"!.~.!.!.~.~.Q.Q.Q.!.!.!.^.^.Q.^.!.!.Q.R.R.R.!.Y.!.!.~.~.~.~.~.~.R.!.!.!.!.!.!.!.",
"!.!.!.!.!.!.!.!.!.!.!.!.!.!.!.!.!.!.!.!.!.!.!.!.!.!.!.!.Y.~.~.!.!.!.!.!.!.!.!.!.",
"!.!.!.!.!.!.!.!.!.!.!.!.!.!.!.!.!.!.!.!.!.!.!.!.!.!.!.!.~.~.!.!.!.!.!.!.!.!.!.!."
};
