/* XPM */
static char *_f7fbe9ef75a477dc3f00c17ea56c1d5VFXJFFTG9sTzTJAm[] = {
/* columns rows colors chars-per-pixel */
"40 40 175 2 ",
"   c #10152F",
".  c #191B30",
"X  c #1E223A",
"o  c #21253A",
"O  c #2B2E3A",
"+  c #0D1543",
"@  c #1C1E4D",
"#  c #181E5D",
"$  c #1C2241",
"%  c #1C224E",
"&  c #1D2254",
"*  c #19215F",
"=  c #232643",
"-  c #262C44",
";  c #20214A",
":  c #24284F",
">  c #2E2E48",
",  c #2E3248",
"<  c #323446",
"1  c #353A4B",
"2  c #393B4E",
"3  c #292E50",
"4  c #22255B",
"5  c #242B58",
"6  c #2D3357",
"7  c #2F3852",
"8  c #373A56",
"9  c #1A2162",
"0  c #1A226B",
"q  c #162170",
"w  c #1A2274",
"e  c #1A227B",
"r  c #222A6A",
"t  c #2B3464",
"y  c #29306D",
"u  c #222B79",
"i  c #29357D",
"p  c #2E387D",
"a  c #303B74",
"s  c #30387E",
"d  c #3D4557",
"f  c #354B6A",
"g  c #444C56",
"h  c #444A5C",
"j  c #4C5264",
"k  c #46566B",
"l  c #555F6D",
"z  c #4E5F74",
"x  c #535D72",
"c  c #525E7C",
"v  c #57616F",
"b  c #58626E",
"n  c #576171",
"m  c #5A6374",
"M  c #5C6975",
"N  c #5B657B",
"B  c #5D6879",
"V  c #606A7B",
"C  c #66727E",
"Z  c #191F84",
"A  c #192184",
"S  c #16238A",
"D  c #1B288E",
"F  c #142395",
"G  c #16229C",
"H  c #232D83",
"J  c #2E3881",
"K  c #25318A",
"L  c #2F3788",
"P  c #363E87",
"I  c #272E92",
"U  c #2C309F",
"Y  c #1C2AA5",
"T  c #1621AD",
"R  c #1423B4",
"E  c #1828B5",
"W  c #1223BB",
"Q  c #1C2EBF",
"!  c #2634A4",
"~  c #2933A3",
"^  c #2A34AB",
"/  c #212DB2",
"(  c #2937B4",
")  c #2A37BC",
"_  c #2C39BC",
"`  c #3B4789",
"'  c #31429A",
"]  c #465D83",
"[  c #516180",
"{  c #50659D",
"}  c #5E799F",
"|  c #626B80",
" . c #647482",
".. c #6C7786",
"X. c #687089",
"o. c #66788C",
"O. c #6D7B8B",
"+. c #717E8E",
"@. c #646E93",
"#. c #6F7C90",
"$. c #4553AC",
"%. c #505FBB",
"&. c #1123C3",
"*. c #1E2FC3",
"=. c #1525CD",
"-. c #1429CB",
";. c #162BD2",
":. c #1A2ED3",
">. c #1C2EDB",
",. c #1D31D8",
"<. c #2130C1",
"1. c #2836C9",
"2. c #2837C9",
"3. c #2B3CD3",
"4. c #2133DE",
"5. c #2D3DDC",
"6. c #303DD3",
"7. c #1F33E2",
"8. c #2136E2",
"9. c #2238E7",
"0. c #2B3AE0",
"q. c #263CEC",
"w. c #2A3EEE",
"e. c #2A3FF5",
"r. c #2D40DA",
"t. c #2C42EF",
"y. c #3242EC",
"u. c #2C42F6",
"i. c #2C41FA",
"p. c #3042F2",
"a. c #5566C9",
"s. c #5A6DD5",
"d. c #5E6FDF",
"f. c #5E74DE",
"g. c #637BCE",
"h. c #6071DE",
"j. c #5E6EE0",
"k. c #5C73E2",
"l. c #6174E2",
"z. c #627AE6",
"x. c #6F808D",
"c. c #758593",
"v. c #768897",
"b. c #798798",
"n. c #7B8B9A",
"m. c #7E919E",
"M. c #7C8CA3",
"N. c #7F90A0",
"B. c #6B8BBB",
"V. c #6880CE",
"C. c #6C89EC",
"Z. c #7A9EE0",
"A. c #7A9CF5",
"S. c #81919F",
"D. c #8494A4",
"F. c #859BA6",
"G. c #889CA7",
"H. c #8597A8",
"J. c #869BAA",
"K. c #889BAA",
"L. c #889AB1",
"P. c #85ADE7",
"I. c #94B6E6",
"U. c #81A4F6",
"Y. c #85A8F7",
"T. c #81A7FA",
"R. c #87B5FF",
"E. c #8CB5FB",
"W. c #93BAFB",
"Q. c #98BDFB",
"!. c #9EC2FD",
"~. c #A1C1FA",
"^. c #A7C8FD",
"/. c #B8D0FE",
"(. c #BED8FF",
/* pixels */
"K.K.K.K.K.K.K.K.K.K.K.K.K.K.K.K.K.K.K.K.K.K.K.K.K.K.K.K.K.K.K.K.K.K.K.K.K.K.K.K.",
"K.K.K.K.K.K.K.K.K.K.K.K.K.K.K.K.K.K.K.K.K.K.K.K.K.K.K.K.K.K.K.K.K.K.K.K.K.K.K.K.",
"K.K.K.K.K.K.K.K.K.K.K.K.K.K.K.K.K.K.K.K.K.K.K.K.K.K.K.K.K.K.K.K.K.K.K.K.K.K.K.H.",
"K.K.K.K.K.K.K.K.K.K.K.J.K.K.K.K.K.K.K.K.K.K.K.F.K.K.K.K.K.K.K.K.K.K.K.K.K.K.K.K.",
"K.K.K.K.K.K.K.K.J.K.J.J.J.F.D.+.m v v v v n n v n m V m.F.K.K.K.K.K.F.K.K.K.K.K.",
"K.K.K.K.K.K.K.K.J.J.J.J.n. .h 8 4 4 5 * & & % & % ; o j c.D.J.F.K.K.K.K.K.K.K.H.",
"K.K.K.K.K.K.K.F.J.L.D.C 2 3 u ^ 6.r.r.r.3.*.Q E R G w * > g c.J.K.K.K.K.K.K.K.K.",
"K.K.K.K.K.K.K.K.J.N.m t K ) y.u.i.i.i.i.i.i.i.q.8.-.W T w $ 2 ..H.K.F.K.K.K.K.F.",
"K.K.K.K.K.K.K.J.F.m : ^ y.i.i.i.i.i.i.i.i.i.e.i.i.q.;.&.R A % < +.L.K.K.K.K.K.K.",
"K.K.K.K.J.J.K.G.x.8 H r.i.i.i.i.i.i.i.i.i.i.i.i.i.i.u.>.&.R F & j M.F.K.K.K.K.K.",
"K.K.K.K.J.J.J.F.v $ ( u.i.i.i.e.e.i.i.i.i.i.i.i.u.i.i.u.,.&.R 0 O O.K.K.K.K.K.K.",
"K.K.K.K.J.J.F.n.h . e ! Y <.e.e.i.i.i.e.i.i.i.i.i.i.i.i.q.;.W S : N F.K.K.K.K.K.",
"K.K.J.K.K.K.J.b X t P P y + Y u.i.i.i.i.i.i.i.e.i.i.i.i.i.4.&.T 9 < v.F.K.K.K.K.",
"K.K.J.J.J.K.N.k ] Z.U.C.s.` q 1.i.i.i.i.e.i.i.i.i.i.i.i.i.8.&.R * < v.F.K.K.K.K.",
"K.K.K.J.J.n.z } I.!.R.T.C.h.$.H 1.i.i.i.i.i.e.i.i.i.i.i.i.8.&.R 9 , c.J.K.K.K.K.",
"K.K.K.J.J. .f I.(./.W.W.A.z.h.J S p.i.i.i.i.i.i.i.i.i.i.i.8.&.R 9 , c.J.J.K.K.K.",
"J.J.J.J.J. .f I.^.~.W.Q.Y.f.f.J S p.i.i.i.i.i.i.e.i.i.i.i.8.&.R * < c.F.J.J.K.F.",
"K.J.J.J.J. .f Z.R.W.W.E.U.l.j.p S p.i.i.e.i.i.i.i.i.e.i.i.9.&.R 9 < c.K.J.K.K.K.",
"J.K.J.J.J.C f P.R.W.W.R.A.k.l.s S p.i.i.i.i.i.i.i.e.i.i.i.8.&.R 9 < v.K.J.K.K.J.",
"K.J.J.J.G.c.k B.E.R.R.A.z.k.%.H / i.i.i.i.e.u.i.i.i.i.i.i.8.&.R 9 < c.K.J.K.K.J.",
"K.K.J.J.J.F.v.k { g.g.a.a.$.H ) p.i.i.i.i.i.i.i.i.i.i.i.i.9.&.R 9 < c.K.K.K.K.K.",
"K.K.K.J.K.K.K.v   # q 0 w D 1.u.i.i.i.i.i.i.i.i.i.i.i.i.i.0.&.R 9 < c.K.K.K.K.K.",
"J.K.J.K.K.K.K.B o I 5.5.0.w.i.i.i.i.i.i.i.i.i.i.u.e.i.i.i.8.&.R 9 < c.K.K.K.K.F.",
"K.K.K.K.K.K.F.M o ^ i.i.p.i.i.i.i.i.i.i.i.i.i.i.i.i.i.i.i.4.&.R 9 2 v.K.K.K.K.K.",
"K.K.K.K.K.K.J.M = ~ p.i.i.e.i.i.i.i.e.i.i.e.i.i.i.i.i.i.q.&.&.G r X.F.K.K.K.K.K.",
"K.K.K.K.K.K.J.c.d r 3.i.i.i.u.i.i.i.i.i.i.i.i.i.i.i.i.w.:.W W w , x.G.G.K.K.K.K.",
"K.K.K.K.K.K.F.J.l $ U w.i.u.i.i.e.i.i.i.i.i.e.i.i.w.9.;.&.&.T r m D.L.K.K.K.K.F.",
"K.K.K.K.J.J.F.J...2 ; K ~ ^ 1.u.i.i.i.i.e.i.i.i.u.9.:.&.&.W w -  .K.K.K.K.K.K.K.",
"K.K.K.K.K.K.K.K.K.#.d o @ Z <.p.i.e.i.i.i.i.i.i.u.i.w.-.W G % j n.J.F.K.K.K.K.K.",
"K.K.K.K.K.K.K.J.J.J.c.1 & <.e.i.i.i.i.i.i.i.i.i.u.u.t.-.W A 7 ..J.J.J.J.K.K.K.H.",
"K.K.K.K.K.K.K.J.J.F.D.B 6 ~ u.i.i.i.i.i.i.i.i.i.i.i.q.=.T 9 x H.J.L.K.K.K.K.K.K.",
"K.K.K.K.K.K.K.K.K.K.K.K.| i w.i.e.e.i.i.i.i.i.i.u.i.:.W e - M F.J.K.J.J.K.K.K.K.",
"K.K.K.K.K.K.K.K.K.K.K.K.c.t ) u.u.i.i.i.i.i.i.i.u.9.=.G t m D.K.K.K.K.K.K.K.K.F.",
"K.K.K.K.K.K.K.K.K.K.K.K.D.x L 3.p.i.i.i.i.i.e.7.>.&.G 0 k D.K.K.K.K.K.K.K.J.K.K.",
"K.K.K.K.K.K.K.K.F.K.K.K.K.D.@.` ' _ _ _ 1.( Y G G D a k v.F.K.K.K.K.K.K.K.K.K.K.",
"K.K.K.K.K.K.K.K.K.K.K.K.F.K.G.S.o.[ [ [ N c c c c N b.D.L.J.K.K.K.K.K.K.K.K.K.K.",
"K.K.K.K.K.K.K.K.K.K.K.K.K.K.K.K.K.J.J.F.F.J.F.K.K.K.K.K.J.F.K.K.K.K.K.K.K.K.K.K.",
"K.K.K.K.K.K.K.K.K.K.K.K.K.K.K.K.K.K.K.K.K.K.K.K.K.F.K.K.J.J.K.K.K.K.K.K.K.K.K.K.",
"K.K.K.K.K.K.K.K.K.K.K.K.K.K.K.K.K.K.K.K.K.K.K.K.K.K.K.K.K.K.K.K.K.K.K.K.K.K.K.K.",
"J.K.K.K.K.K.K.K.K.K.K.K.K.K.K.K.K.K.K.K.K.K.K.K.K.K.K.K.K.K.K.J.K.K.K.K.K.K.K.K."
};
