/* XPM */
static char *c51b61fb46384223cb4ad66f81864743NmMVlRIdKYRVms7i[] = {
/* columns rows colors chars-per-pixel */
"64 64 25 1 ",
"  c #2A45B1",
". c #00009D",
"X c #00005B",
"o c #00007F",
"O c #4D75D4",
"+ c #4099ED",
"@ c #000030",
"# c #0000A5",
"$ c #006AD3",
"% c #0088E8",
"& c #00008F",
"* c #0045BB",
"= c #00B8FF",
"- c #2AB7FF",
"; c #002AC4",
": c #8297EA",
"> c #006AE5",
", c #2AD4FF",
"< c #008DF1",
"1 c #00AAFF",
"2 c #00D8FF",
"3 c #0000AE",
"4 c #00F3FF",
"5 c #82BAFF",
"6 c #51FFFF",
/* pixels */
"@@3&@@@@>@X;&XXXooooooX@@@@@X>Xoooooo<#oooo&33XXXXXXXX33;@@@@33@",
"@@>@@@@>1@X3;oXoooooX@&;><<1=2&X.oo#;$#oooooX3XXXXXXXX;&;X@@@33@",
"@3&@@;1<13X&>ooooo.o@@<%%%%O$%1&Xoo#<*ooooooX&&ooXoX@33&;@@@&;;&",
"@>@31;##*>&&>&#oooo@@>%O:::::O%1&X@>%*.ooo.oo@;&oXXX@>o&>&3;3&&3",
"32<;##.o.*<3;;o...X@>%:::::::::O=&@<$......o.#3>&@@@>;o&>>&&XXXX",
"13&#oXXXoo$1;<@#.o@;%O:::OOOOO:OO=1$ .......oX;21<<1>&Xo>3oXXX@X",
">oooXXXooo#%=13oX#;<$OO ..*... OO+,%$.. .  .X&12$ #;<&Xo;&oXXXXX",
";#ooooXoooo#%413&3=%OO*#*+%**..  OO,$ .ooXoo;=1=O .#<3oo33oXXXXX",
"*#oooooooooo$+4>32+++$##+-$$$$$   O$1;&&;;<1424% .o.*>&o3;#oXXXX",
"*#ooooooooo$**-44,+++$#*-+%*$$+O   $2==--+--554=*...#>;&&;#oXXXX",
"*#ooo#*ooo$##*$=6,55$*$--%$*%$+-O  $2+:5::::::-,$...o#>&&>#oXXXX",
";###oo#*.*###**%=65-$%---%$*#%**,+.<,5::O    OO$=*...#&;&<##ooXX",
">##oo#o#%####**$>4++-,,-+,*###%O  X2-5::        *<o...o332<##ooo",
"1###...#+.#****#<=+,+%-,-$*####* o3,:::         o33#..o;1;<11>;&",
"<3#....%-.#***$&1---++++6%*####*.X1-:::         .X3&oo@>$..#>=21",
"*>X....+%*.****&2,-++%%%-6$#### X34+::O          o@3X&;<* ..**<2",
"#<Xo..*+$****$#;4,-,%$%+%-*##*O X>2+::O           o&<<<O .oo##>2",
"#$>@#.$$$ ***$&14,-+%%%%++$$OO .X&=+:O     ...    XX;2+O..ooo#;=",
".#1&X.$$ooo.#*&4-,+%$$$O++OO,+  XX<+OO    .....  oX@>-: ..ooo#;1",
".o;1XX@XXX@XXX>46,--,$*O++%%$$..XX<+OOO  ......  oX&=::..o.ooo>%",
".X$-2========246,6,+%-OO%+$###..o@;-OOO  ......  X@<-: ... ..X<*",
".X-O=2%,-%%+-,666,,+$O+$  ..#....X&,OO +  ..... .@&=::  ..oo.;1*",
"&&,O%2%5,%$$%,6,646+O,-* ....... XX2OO OO  ...  oX>-:O ....oo&1%",
">44O+,%:5,,--,-664>*5-O*........ .o=%O  +OO ..  o32+O  .....o@;2",
"-,,O+4=+$%++$+4++<<&OO ......... XX<-:O O++OO O #1,:O  ......X&2",
"-44%-,4,+,565+$#&<1&oO ....*$.. oXX;,:OO     . .o1,:O   ... .X>=",
",4=4%%4%++++*oX#=62;oo.....-%. OXXX;4+:    .....X;4+:O    ..X&=+",
"=%+%4=43&#.#X&<4=4+<&@Xo. O-++OoXXX=4+:O ...... X&2=++$##o.XX<+:",
"+O::+,621<;>=,=%-+%2;@@@XXXXXXXoXX+,4+:  ......OoX>666,<;;;;>=OO",
"OOOOO:++-==24%$%,O%=2<;&XXXXXXXXX*5+=,+O ......OoX;4-555-,-=1%O ",
" O    O::++=2$$=-$%=%%-==1<>><<<<,:O%2%O ..*.. +.o&4-5:::OO$<-O ",
" ....  O  O%2$*1$$=-::::+=466,=%4%O *12%O .$,-+5oXX1-::O  ..$=  ",
"*..... +   #133;;<-5::  OO%4,55+2$#&12=2%O   +-ooo&2%OO   ..*,*.",
"3*....O    o222<>=::O ... #4-::-<;<==%%%==+O++XXX>=+OO    ..*=$.",
";&$...+   Oo===44+:O  ...o;-+OO=12,-+O*$3>=#*oX&>=+:OO    ...1% ",
"=>&%--+   X;44,46+O   ...X<%OO*=4--O    *&;1;;>22+5O     ....3<*",
"O%<Xo$OooX;,55556+:O  ...X=$ O&=-+O   **$#&>44,%2+5      ....X=$",
"OO%<XXoXX;-55555,,OO    o;%  *3=++* **$+$$&>4,5%2+:OO    ....X=$",
"OOO%<&X&%55555::+4+OO   &>#oo&<4%%*  +-,$$#1,5O$1%OO  O      &2<",
". O+=2<,555:OO O:-,# O o&>XX3<-=2%$*+,6--*&2-+$*14%O  O    *&1==",
".. O%4=55:O      +,;Xo#&>;&<-55+=2>4+$-,%&>2%#;===44+$  $%%>1=%$",
"... %4+5:  ..    O%=;&;<2>=555::+=42,+%%$&12<<=--++-,2%$$*$14+O ",
"...$-=+O  ....   O;222244,+::O  *,62=%$+#31=6=-55:::+=2%* *$4+ .",
"...$,%O  ......OO*14,--4=5:O....$,621;*#&>=-,=565+OO:+==*  *<=$.",
"o.*$2=O  ...... *341$$%2+:: ... $%*%>1&&>2,-,=6-,+, O:+2$ ..#<%*",
"o.*31,O ........&<42===4%+:  .. *$ -*<214-5+==5+,6+6+$O-=o..#&1;",
"*##>>=$ .......#;=55555-,%:O    O O-$&14-5++=4%-6-+,6+O+=&X.o&<>",
"@@&21<$ .......X1-5555:+-4+:O        X<,5+O+==46,--$+,++=>@X@&2<",
"@@>><2; ..... X;,:5:O O:++4-O       .X2-+O %>26,-+--+-+++2XX@1%*",
">>1>;43**.ooXX&2:5O     O+26=* O    #&,+  $O>4---$--+$-++=>X<$#o",
"$$<112>;&XXXXX1-::  .    O=,2;#O   .&;+O  O+;4$+$$---$$%-%21<#oX",
". $$%2%%<<;3&>2::  .. .  *=-+4>o.  o@<+O  O+&=$%$%-+-%%%*%>2;&XX",
"Xo. *=%O::++-4%:O ... .  #=55+=>X.oX&-:  O *&<$%--%+,+$%%*X11>XX",
"XXo. $=$O:::O2%O      . O#=55:+=<&#&1+O O  #&<%%%%%-%$-$%-X31><>",
"@@XX#*=$*  OO%=O  . ... #&=5::O+,1;;,+O O.OoX<**$$%=*#%%%=X@1;;<",
"@@XXX#><##. O$=$  ......X3,+OO  +,44-: O..-X@>*##%,##oo*$%X@3;&&",
"@@@XXo;1&#.  $=%*  ...oX312O    O-44+O  .$$X@<###*#oo;;#*%X@@>XX",
"@@@XXo&1>&#**$11$   oX@3$%,$     *2=+OO.*$.@&2;oo##&;>#;$oX@@>3@",
"@@@@XXX223Xoo#;2;&oX@@;$OO-%.....&2%OO..*.o@;1;&X#&;;&X&$<;@@>>@",
"@@@@@@>1>13&&&3213&@&;*.. $=&X@@X><*O .o#o@@>>>&X;##XX&<;;@@3>33",
"@@@@@>>#;2>>><12>>11>*.o..#1>>1==2<# .oooo@>;#>&X*&X@XX=@@@31;&&",
"@@@@>3&X31###**>1#;1&oooX;1=%$$**$1#.oooo@@>#&33XoX@@@X;@@33&;&X",
"@@3>&X@@;;oXXoo3<&&>@X@X><$* ..o.#>;ooooX@>#XX33X&&@@@@@@31>&&XX",
"3>;@@@@@>&@@XXXX33X;3@;<;#ooooXXXo#<&oXX@3;oXX@3X@&&@@@@3X;1X@@@"
};
