/* XPM */
static char *_aafd69eafea4ed39864cca13313ef96kBKrU11GZSh1CU2B[] = {
/* columns rows colors chars-per-pixel */
"64 64 25 1 ",
"  c #515682",
". c #4A4C77",
"X c #3B3E69",
"o c #586598",
"O c #2F335C",
"+ c #232752",
"@ c #2C518D",
"# c #5575AA",
"$ c #5185B8",
"% c #4086C0",
"& c #6A74A8",
"* c #466197",
"= c #3F4B7B",
"- c #2A3D70",
"; c #476DA6",
": c #336FAD",
"> c #2961A4",
", c #445688",
"< c #307EBF",
"1 c #399BD5",
"2 c #213F80",
"3 c #5198CB",
"4 c #4AADDA",
"5 c #6A87B8",
"6 c #54C7E7",
/* pixels */
"++2-++++>+O@-OOOXXXXXXO+++++O>OXXXXXX:=XXXX-22OOOOOOOO22@++++22+",
"++>++++><+O2@XOXXXXXO+-@>::<%1-O.XX=@*=XXXXXO2OOOOOOOO@-@O+++22+",
"+2-++@<:<2O->XXXXX.X++:;;;;o*;<-OXX=:,XXXXXXO--XXOXO+22-@+++-@@-",
"+>+2<@==,>-->-=XXXX++>;o&&&&&o;<-O+>;,.XXX.XX+@-XOOO+>X->-2@2--2",
"21:@==.X.,:2@@X...O+>;&&&&&&&&&o%-+:*......X.=2>-+++>@X->>--OOOO",
"<2-=XOOOXX*<@:+=.X+@;o&&&ooooo&oo%<* .......XO@1<::<>-OX>2XOOO+O",
">XXXOOOXXX=;%<2XO=@:*oo ..,... oo#3;*.. .  .O-<1* =@:-OX@-XOOOOO",
"@=XXXXOXXXX=;4<2-2%;oo,=,#;,,..  oo3* .XXOXX@%<%o .=:2XX22XOOOOO",
",=XXXXXXXXXX*#6>21###*==#$*****   o*<@--@@:<414; .X.,>-X2@=XOOOO",
",=XXXXXXXXX*,,$443###*=,$#;,**#o   *1%%$$#$$554%,...=>@--@=XOOOO",
",=XXX=,XXX*==,*%6355*,*$$;*,;*#$o  *1#&5&&&&&&$3*...X=>-->=XOOOO",
"@===XX=,.,===,,;%65$*;$$$;*,=;,,3#.:35&&o    oo*%,...=-@-:==XXOO",
">==XX=X=;====,,*>4##$33$#3,===;o  O1$5&&        ,:X...X221:==XXX",
"<===...=#.=,,,,=:%#3#;$4$*,====, X23&&&         X22=..X@<@:<<>@-",
":2=....;$.=,,,*-<$$$####4;,====,.O<$&&&         .O2-XX+>*..=>%1<",
",>O....#;,.,,,,-13$##;;;$6*==== O24#&&o          X+2O-@:, ..,,:1",
"=:OX..,#*,,,,*=@43$3;*;#;$,==,o O>1#&&o           X-:::o .XX==>1",
"=*>+=.*** ,,,*-<43$#;;;;##**oo .O-%#&o     ...    OO@1#o..XXX=@%",
".=<-O.**XXX.=,-4$3#;***o##oo3#  OO:#oo    .....  XO+>$& ..XXX=@<",
".X@<OO+OOO+OOO>464$$3*,o##;;**..OO:#ooo  ......  XO-%&&..X.XXX>;",
".O*$1%%%%%%%%166463#;$oo;#*===..X+@$ooo  ......  O+:$& ... ..O:,",
".O$o%1;3$;;#$366634#*o#*  ..=....O-3oo #  ..... .+-%&&  ..XX.@<,",
"--4o;1;53;**;364646#o3$, ....... OO1oo oo  ...  XO>$&o ....XX-<;",
">44o#3;&533$$3$664>,5$o,........ .X%;o  #oo ..  X21#o  .....X+@1",
"$33o#4%#*;##*#4##::-oo ......... OO:$&o o##oo o =<3&o  ......O-1",
"$44;$343#3535#*=-:<-Xo ....,*.. XOO@3&oo     . .X<3&o   ... .O>%",
"34%4;;4;####,XO=%61@XX.....$;. oOOO@4#&    .....O@4#&o    ..O-%#",
"%;#;4%12-=.=O-:4%4#:-+OX. o$##oXOOO%4#&o ...... O-1%##*==X.OO:#&",
"#o&&#361<:@>%3%;$#;1@+++OOOOOOOXOO#34#&  ......oXO>6663:@@@@>%oo",
"ooooo&##$%%14;*;3o;%1:@-OOOOOOOOO,5#%3#o ......oXO@4$555$3$%<;o ",
" o    o&&##%1**%$*;%;;$%%<:>>::::3&o;1;o ..,.. #.X-1$5&&&oo*:$o ",
" ....  o  o;1*,<**%$&&&&#%4663%;4;o ,<1;o .*3$#5XOO<$&&o  ..*%  ",
",..... #   =<22@@:$5&&  oo;4355#1*=-<1%1;o   #$XXX-1;oo   ..,3,.",
"2,....o    X111:>%&&o ... =4$&&$:@:%%;;;%%#o##OOO>%#oo    ..,%*.",
"@-*...#   oX%%%64#&o  ...X@$#oo%<13$#o,*2>%=,XO->%#&oo    ...<; ",
"%>-;$$#   O@44346#o   ...O:;oo,%4$$o    ,-@<@@>11#5o     ....2:,",
"o;:OX*oXXO@355556#&o  ...O%* o-%$#o   ,,*=->443;1#5      ....O%*",
"oo;:OOXOO@$5555533oo    X@;  ,2%##, ,,*#**->435;1#&oo    ....O%*",
"ooo;:-O-;55555&&#4#oo   ->=XX-:6;;,  #$3**=<35o*<;oo  o      -1:",
". o#%1:3555&oo o&$3= o X->OO2:$%1;*,#34$$,-1$#*,<4;o  o    ,-<%%",
".. o;6%55&o      #3@OX=->@-:$55#%1>4#*$3;->1;=@%%%44#*  *;;><%;*",
"... ;4#5&  ..    o;%@-@:1>%555&&#%413#;;*-<1::%$$##$31;**,*<4#o ",
"...*$%#o  ....   o@1111413#&&o  ,361%;*#=2<%6%$55&&&#%1;, ,*4# .",
"...*3;o  ......oo,<43$$4%5&o....*361<@,=->%$3%565#oo&#%%,  ,:%*.",
"X.,*1%o  ...... ,24<**;1#&& ... *;,;><-->13$3%6$3#3 o&#1* ..=:;,",
"X.,2<3o ........-:41%%%4;#&  .. ,* $,:1<4$5#%%5#34#6#*o$%X..=-<@",
",==>>%* .......=@%55555$3;&o    o o$*-<6$5##%4;$6$#44#o#%-O.X-:>",
"++-1<:* .......O<$5555&#$4#&o        O:35#o#%%463$$*#3##%>+O+-1:",
"++>>:1@ ..... O@3&5&o o&##4$o       .O1$#o ;>163$#$$#$###1OO+<;,",
">><>@12,,.XXOO-1&5o     o#16%, o    =-3#  *o>4$$$*$$#*$##%>O:*=X",
"**:<<1>@-OOOOO<$&&  .    o%31@=o   .-@#o  o#@4*#**$$$**;$;1<:=XO",
". **;1;;::@2->1&&  .. .  ,%$#4>X.  X+:#o  o#-%*;*;$#$;;;,;>1@-OO",
"OX. ,%;o&&##$4;&o ... .  =%55#%>O.XO-$&  o ,-:*;$$;#3#*;;,O<<>OO",
"OOX. *%*o&&&o1;o      . o=%55&#%:-=-<#o o  =-:;;;;;$;*$*;$O2<>:>",
"++OO=,%*,  oo;%o  . ... =-%5&&o#3<@@3#o o.oXO:,,**;%,=;;;%O+<@@:",
"++OOO=>:==. o*%*  ......O23#oo  #344$& o..$O+>,==;3==XX,*;O+2@--",
"+++OOX@<-=.  *%;,  ...XO2<4o    o$46#o  .**O+:===,=XX@@=,;O++>OO",
"+++OOX-<>-=,,*<<*   XO+2*;3*     ,1%#oo.,*.+-1@XX==-@>=@*XO++>2+",
"++++OOO112OXX=@1@-XO++@*oo$;.....-1;oo..,.X+@<@-O=-@@-O-*:@++>>+",
"++++++><><2---21<2-+-@,.. *%-O++O>:,o .X=X++>>>-O@==OO-:@@++2>22",
"+++++>>=@1>>>:<1>><<>,.X..=<>><%%1:= .XXXX+>@=>-O,-O+OO%+++2<@--",
"++++>2-O2<===,,><=@<-XXXO@<%;**,,*<=.XXXX++>=-22OXO+++O@++22-@-O",
"++2>-O++@@XOOXX2:-->+O+O>:*, ..X.=>@XXXXO+>=OO22O--++++++2<>--OO",
"2>@+++++>-++OOOO22O@2+@:@=XXXXOOOX=:-XOO+2@XOO+2O+--++++2O@<O+++"
};
