/* XPM */
static char *_292fa7348604355d56f9ca5cd4befacB63Znf6H0dESiESO[] = {
/* columns rows colors chars-per-pixel */
"10 10 2 1 ",
"  c None",
". c #7F12BD",

/* pixels */
"          ",
"   ....   ",
"  ......  ",
" ........ ",
" ........ ",
" ........ ",
"  ......  ",
"   ....   ",
"          ",
"          "
};
