/* XPM */
static char *cc63b5832a0541bac027da77e3cc913eZX7omm9VMtiyJRUK[] = {
/* columns rows colors chars-per-pixel */
"64 64 25 1 ",
"  c #74797A",
". c #797E7E",
"X c #7F8384",
"o c #6C7172",
"O c #717676",
"+ c #666C6D",
"@ c #454746",
"# c #4E504F",
"$ c #414241",
"% c #8E9191",
"& c #9EA0A0",
"* c #8A8D8D",
"= c #858989",
"- c #939695",
"; c #999B9A",
": c #636767",
"> c #A7A8A9",
", c #5F6161",
"< c #B1B2B2",
"1 c #555756",
"2 c #5A5C5B",
"3 c #3B3C3C",
"4 c #BCBDBD",
"5 c #CECECF",
"6 c #E0E0DF",
/* pixels */
".1$. ...#OXo*  X..  .=O2#@@@@@o .  X o-.  . 1O   .. .=,oo . .1X.",
":@1X.O,@32.:=X  .= .+##$$$@#@@#oX  X1**   . ##    *XX+.*O ..+$,X",
"1$::1@$#31.oO*   X=o#$#.=*-;-:@#o .:+-.   X=1@2. .=.:1-%:O::1@$o",
"@3@@#X<4<1#X,=X  ..@$@;<4444<<.@21#1-=    = :@$OX..o@X&&2#@2 *:$",
"33#*<4<>4<#:,:X. .#$@;444444<<<X#@@o-    =X .2$21@@21&--1o-;*.XO",
"@=&<>*O+X><11$#XX2@@X>4<<<>>&>>&=#1%X   .X X:2#@2:1$%*XX:&;X   =",
":%-X o+O O&>23@2#2$O--&*.Oooo %&& :%=  X.=.+@$@ &&;:. XX.&-   ..",
"*%.  Oo  +o;>@@1@1O-*;O+o&XOOoO.-&=O*X.O:,o@31,%;-%-O X..&-   =X",
"%=  OOOoO+++;;$#@,%%%.+O>&XXXX.  =;O21@$$$$$#+#=* X-X..  &;..X. ",
"-X  Oo oo++*X*O$$=*%;o+*<;===X&.  %*@+ X*%-;&&1== .X*o.  &;=X   ",
"*   O  oOo%O+o=+@%%-%oO%>==X%=<5. =X+<444<<>><> = ....X  %-=    ",
"*X.. ooO *o+ooO=,o;-o%>4<* + *.>5X+1>4<<%XX.=*&= X=. .1O+X%%X.  ",
"=X   Oo+. OooooO2o--&<5;&&+++ >.%O#144<;  .X. .X:: . .#@@2=*=  .",
":X.    OXOOOOoO,@=%4%*45%*++++X=.1$X4<&. ..    O1@1. .:31 :+X=o1",
"1:     <%    OO#1*4>;-;>4o+++++O,$#&<>-..      .2$3,o:@2%*=X+2 1",
"O#:   .4      +@:<>;;*X=<5o+:+oO@$+&<&%.         #3$@11%-%X==X+,",
"X1@O  -4O     2@*4>>%XX=%<+++oX:@3=&&;=         .O@33@%&-.   XXO",
".+3#  <%O.   .@,55>%=X.=&=  X=X2@$.&--.   OOOOO .o2#3o<-..OO .o=",
" .$$2.< 1o:Ooo$O46-.oOOX;=X-4= :$$o&%*   OooooO  1@@#<<.O.ooo.#&",
"O+#3@1#1@1$@$@3%5<%-%+o >X;&>%+o$@,&%*OOOoooooo  #$$X4%OoOooO,#>",
"O##+3$$@@@@@@$3;44-o-&.O44-++.+o#$1;*%OOOoooooo +@$#<<X   X X@+&",
":@+;,+<<-%%%-<4, ;4o+=XO O++++++1$@%%% oOoooooO.2$$X<% . oo X@X;",
"1@.-=:&54*X*&65<.=6 X4%OO++++::+O$@.*% ooooooOOX#@#>>X.OoooO,$o-",
"@$X=>+;<55555>>641:o>;Ooo++::::+.2#:*%. +++OOO.:#$.>%  OOOoO2$$O",
">O.=4%--=&>&.-6&-O$1XOooo++::::+o$$#*-. XOoOXX=+#@-;.    O  1@$@",
"<2:;5<45>>&44>O:#@$$+:o++++,+:+O#$$$*%XX O .Oo.#$@-%.      X2@@-",
"X+o,O. -;&%&O2#@312@11Oo++:,++++$$$3X*= . o+++o1@3%*%X.XX..o1#*<",
".;-%:o@2::O,#@@+o.=@1$#,:+2,ooo1$$$3o*%X ++++++:$$2*%XO+:2+@@2<<",
"&--;; 3$$@#3@o;;.%;1$$$$$$$$$$$1@$@X,%% o++++++ @$33#,,#@@1#$><>",
"-=*=--%%*=X#O-=*OX%,1$3$$$$$$$$@@$X; =%.o++:+++.@$3:--%=.O:,#>>%",
"X=.Oo.=%;;;oO. oo=..;-.2@@$$3$$$3o%X=O*=Oo+:+++.2#$,&&&&&;%*2;&=",
" +++++o   =O, +,.o <>>&&% 23+*-*2%XOO#O=Xo+,2,: #$$@-&;=.. .:%-X",
" +++++o.  .#@1$#,,><>%..XX 2&&&%O 21@+o:==ooo:+@##$1X*X .   +X=.",
":o+++++  . @3$$$#->%.oooo+1 ;*-.,#1.&-*O2.*. 2$$$@.*=*  .    +=.",
"@1ooooO  .X@$.o3:%%  oooO#1;X  21O><;.  #$:#,$$3@*&;**  .    1XX",
"O$:+o+.  o#@# *1,*X  oooo@:-. ,#->>=    +@3$#$$3o&>= X  .   :@.=",
"&X1@#1 ,#@@*<<<&:*=. ooo:@ ...@+--=     .#@$2.;*O>>... ..   ,$O*",
"&&.#$@2@@1&44<<<=.=   O #@X.O:@o*=..  =-.,@3=;%*o&&X.X X.  .,$:*",
"%;;X$$#$:<44<>&&&:*.    ###,$$$1== ==>54=:##;* :@=-..== =..X+$#=",
"O=-;,$$ 444&*= %;X:2oO+@$#@##X>Xo*==;56>&#3:%.o,3#X= .=....:@,XO",
"oo * @=<4>*.OOoo *2$$@1$$@#o>4<&.o;6=>5; @3O+##o*X,:XXX.Xo+1,;;-",
"ooo..+;>-.OooOOoo.,3@$$3$#*44<>;&.&54<-*:$3@@2=;&&&X,+=XX O2.;-*",
"oooXo.*.OOo+++ oOo@$2oX::;&>%..oX64>>X%-#3#=1*>>&;&&&.:O   o,;X ",
"oooX:X= Ooo+++o.X#3.---o-;-.o+OO;4<O,,,,@3O-o*>6;= *&&,O .  2%*X",
"ooOO1 X oo+++++o+$3+,,+O**%o++O.XOOO$$$@$,;- ;5;&&.OX;%1 X  22%.",
"oo+@,o.Ooo+++++:##oo+:1:==*Oooo oOX4233@*&;%.;%*6>55=.;o1+. 232:",
"+,,3:+.Ooo+++++,#.<4<<;XO=-XOoo O.>-,@3X&&*X=-X55%-54-%-2#::1$$1",
"@@$3#1 Ooo++++,$2;44<&-*=+=%OOOXO . ,@#&&*  +-65>;% <<-&o###$$O;",
"@@3213o Ooo++O$@X<<-XXX=%=,=X OX    ,$:&*. +1<5;>=>&%&<&*@#@$o-%",
".2@,,31  o2#@#3+<<XOo.ooX;,#+O.X    ,@*;...+2>.&&X<&&X&<>2#@2;= ",
"<<>=222#$@@@@$@&<% o+ ooOO,-,@:    :@:&*X *o1- XX*<>>X-&<-3#-=  ",
"&&&&=o&&*O,#@3.>& Oooo+oO1:&;+@1oOO@$X&X. =+#XXX*%>><*>;>-@1*.  ",
".*;&%+;<<<<;O@-&%.o+oo++o@o&&&o$#+#$@--. ..2#X%*-;*<;%&<<*@$:22o",
"++O*-X.;;>>>&2-%  .. O+o #.&&;&.$1#@:;*X.  #@.=*%*&%.%&46>#$.*,#",
"++++X%o=...--.%= Oo oooO#$.;%*%-.##@*%X.. +@@ ..X=-.. ;<65#@#%-+",
"+++++XX2:  *%=X=  OOooo2$3 *....* @#**..OO:@@+ OX*OoooO;561@$ =%",
"+++++O+$2O .=X+*. O O+@@#++X   .=%1.=== O+O@@:..X.++ ;X&&>,#@#XX",
"o+++o :$@#oX.XoXX .O1$$:%;oX   ..21**X.o+ +@$2=Ooo+.-%X<5.@@@3,o",
"+O+o+#@13$@:2,2#1@,@@@.-*;X.+o:,,$+=-=oo+ #@oX.oo+X*XOOX5O1@$@#1",
"ooX:@@1.=3@@@@$#,@#@@.*. **,1@$$@#.X- oooo@@%* ooO%XOo&>*2$@o>=#",
"+#1@$1--=#*%%*.1*O@@=X  .= @@#:oO,X=- Oo.2@+&*:o ;O+oo<<1$$o655.",
"#$$3o;X :X&%--%.:..1O.o222:%>>>&&&.=* O.O@#%*.,  ..+oO;1$$.;>444",
"#$$O**  :*= .. X, .#11@@:*;&;*..=;*X*  .:$o% .:O.X=ooo#$$O65%;&4",
"3@XXX...2=      oO 2#$1=-=.XX OO =-O*..:1#%X..,,X *=:$$3:%66<.*&"
};
