/* XPM */
static char *_be62992eacb4a2aa1746f4e1f3c8dccbQRYZfPpLU3Rd2Pt[] = {
/* columns rows colors chars-per-pixel */
"64 64 25 1 ",
"  c #545178",
". c #48446B",
"X c #3B3358",
"o c #6A5978",
"O c #6D618A",
"+ c #5B4765",
"@ c #392945",
"# c #825971",
"$ c #BD6F5A",
"% c #321E38",
"& c #513755",
"* c #A56A72",
"= c #894B47",
"- c #8172A0",
"; c #784B5D",
": c #955C6A",
"> c #6F3D41",
", c #5E3037",
"< c #4D2C3D",
"1 c #A26157",
"2 c #886886",
"3 c #A88385",
"4 c #A35644",
"5 c #D58063",
"6 c #D98C80",
/* pixels */
"<=@@@@><@<<XXXXXXXX.X@%%%%%=%.....&>+.XXXX<,XXXXXXXX<,=%@@@%,%@%",
"4@@@%,$<@@=XXXX....@%>>==11$,@....&=+.XXX.@,<XXXXXX@,<=@@@@%,%@@",
"=%%%=444@X=&XXX...@%>:#:##o#$,@...=+......X%,@XXXXX<>&=<%%%,><%%",
"<<4=&++;,@>>.....@%,:OO----Oo1,@@<1+.......@,,&XXX%=&&>,<,,<@<<%",
"4=&+...+;><=@...X%,:O--------o:,%=; .... ...<=<%%%>=&X,4>&XX@@<>",
"&&..XXX.+:>4<X..@<1oO---OOOOOOO*==+... . ..X<$$1=4$&XX<=&XXX@@@@",
".XXXXX.X.o*4>&@&<1;oOo .+... OOO$;+       X@15; +&1&XX<,&XXXXX@X",
".XXXXXXXX.o*$<@<4#oOo..#:+++.  OO*#+ ..XX&@$11o  .;>XX<>&XXXXXX@",
"XXXXXXX.X.+#$4,4:#oo++#*:oooo   Oo1=<<>>>=1*$*o ..+;&X<>&.XXXXX@",
"XXXX..X..+o+#54$#22#++3*#ooo#2   o:5::::::22**+ ...;>&<>&.XXXXXX",
"....+...+o..+:5$22oo+#3##+#o232   $:2-------2*;+. .&;&<=&.XXXXX@",
".....+. +...+o=532##3*32#++oo 33 &$2---O   Ooo:;. ..&><4&..XXXX%",
"......# ...++o>$:22333o3o++.o2 oX=*---O       +=&...&,,44&&&XX@<",
"......#o.+++++,$#33#233oo+...o  @$2--O        .<,&...<$=;11>&@<>",
"&....o3o +   &>1232##363++.... X>*2--O         @<,X.%,;+..&1$44+",
"<....2#o    o<4*3*2#o##62+... &@$:--OO         .@<<@,=+  ..+;$1+",
">@...3oo    +<$*33#oo#o3o+.. oX<5#--O           .@==4;o ....+1: ",
"4%&.o2o    o+>5333o###o3oooo  X@12OOO           XX<5:O  ....&$+ ",
"=>%.oo+X.+++&$*6*2o+ooo2oo33  X@=:OOO           X@<*-O......&$  ",
"&5,@@@&@@@@@,563323#+oo3o2oo ..@,:OOO          .X@12- ......,1  ",
"&3$4======11556332o*ooo32... ..@<*oOOo         X@>*-O    ..&>;  ",
"22#5;$::#::*656332+o2o  ...... X@$oO 2o        @@12-   ... &4+  ",
"3Oo$;262ooo3636533o33   ...... .@1#OO 2o       @>*2O   ... @=;  ",
"6OO*:2333223366$4+O3O  .......  X>*OO OOoo   O.<$:-     .. @<$;+",
"3OO3*# 222oo332;4<+Oo .... ... X@<*OO  222OOOo+=52O        @@4$1",
"5;3366233332o+&,$<@Oo ....o... @@<$OOO        X=52O        @<$;;",
":$1;*:o222o&X&=5$=@&.    22  OX@X<$#O     ..  X<$:OO      X@=#Oo",
"o#*$$=&&++X@;$*3#$<@@X.. 2O2o @@X>5#-O   .... X@4$#oo+&XX&@,*OOO",
"OO2:654=>=1$:##3o:4<@@@@XXX@@XX@+3$*OO  ..... .@,56651;>>>>$#O  ",
"OOOO2#:::15;;;*oo;$1=<%@@@@@@@@@3-#$#O  .  ..o X<$*222233*11oO .",
"    oOOOo#5;+;*+#$#o#*11=>===4=$-Oo::Oo    . o X<4*---OOOo+$oO..",
"     O   o$;+=;+12---OO#$66$:#1*o +>5#o   2323 @@>$2-O    +$o ..",
".    O   +1><=&>*---O oOo*32-2*;&&=$11:oo  o3+XX<1:OO     +*# ..",
"..  oO  o.=$$$>12-O     &$22O21,=1:##;=1#OO2&@@>*2OOO      :: ..",
";   Oo  O.>$:56#OO     .<:2oo;11*:2o +&,1;+&@<=12-OO       ;1+..",
"<;222   X<$63*6#O      X>#ooo>$:2O    +<,4>,>$5#-O         @1+..",
"1<@+O.X@<13---6*OO     @=o O&>:2O      +<,$5*:$#-O         @=+ .",
"#=<@XX@<:2----23#o     <1  +<=#O   +o#oo&>5*2#1:-Oo   O    @=; .",
"O#1,@<=3------2**Oo  o+,&X&<=51# +o#2*oo&=$2Oo>1oO  O     o&1$+.",
"OO#51$2---OO O-23&. o&<>@@,=::$=;+##**2o<4*Oo+=5*oo o     &=11;+",
" Oo$$2--OO     o*1@X&<,=<>:2--#1=:*+###&,$;&,41:$$*oo  o;;4*#o;;",
"  o*#--O       oo1><,=$=:2---OO#$$*##oo<=$1=1:#22#*$:+ ++;5:o +;",
"  #$oO         O&45$*15:2-OO  .#651;+#+<41*$#3----2#$1+  +1*o..&",
"  #1oO    ..  O+>5**2**2-O .. +26:1,&&&,4::12332 oO2:$+   +$;...",
".+=$oo   ...   ,$4;+;$:OOO ..  #+#>4,<,$*2:133*#:o O2*1+ .+,1+..",
" &4$o    .... &>$$$*15:oOO     o o:,$4$:22;$:#:6#6:oo#5<...@4&@@",
"&>=1o   ......<13-3--#*:oO    o o#o@>5*22o;5#:6*o#6:oo*>@.X@>4=>",
"@41=;   .....@4*-----O#**#O   o    @>$22oo;1*6:*#oo*:o#$%@%<4=+&",
",4>$>   ... X,$2--O OOO2**#o       %4*Oo o>$5*#:::###2o$>@%=:+..",
"$=,4>&++.XXX@$2--      O:5$+ O     %1#o  o<5*####*####2#1%=:+.XX",
";;4$4>,<%%@%=*--       o;**$&     @,:O  o2<$;o+;#*:o+o##1$=&XXXX",
" o+1;##;;>>>$O-O       +>*2*$<.  .%>#O  o#<4;#o###:#o#+#&$=&XXXX",
".  ;:o--O2:5*OOO       +=*-2:1<&.@<1OO o o@=;#:#;;*:;+#+&=$4,@X@",
"X. +1;oOO-O#*O         +=2--O#1,+<=2O oo o%=;+##;#:+#;;:&%$,=4,,",
"XXX.;:+.  O+1o        .<=2-OOO#1=,12O o  o%=;+++;:+&+;;;+%>=&&$4",
"XXXX&1<.. Oo:;       .@,$#OO  o:55*OOo  #+%>;..+#+&X&&;;+%%=@X>4",
"@XXX&=,&.   ;;o     X@<4$#    O2*5:O    oX%=>&..+&X&+&++&%%>,@@=",
"@@XX&>$<X . ;$;   .@%<;;:#     +=$oO . # X%4=&XX&X&+&&;&<%%<=%%>",
"@@X@%4$4%XXX<4=<@X%%,; o#:+....@1;oO .+..@<==&XX&&&XXX&;=%%>4%%,",
"@@%%>4>4=,,,,44=<%<=+...o1&@%@<>1+  ....@%=>=<X&&&X@@=&&%%<4<,%,",
"%%%>>&&4=>;;:$4>4$=+....+=4=1$$$$&  ....%,;&>,@&&@@@@4@%%<==@@,,",
"%<=<@@@4&&&..&1&&1<.XX@>11;+++++;;..XXX@%=&X@,@X@@@@@&%%,>@&@@<4",
",=@@@@,>XXXXXX=,X>,@%<>;;+ .....&=&.XXX%>>XX@>@XX@@@%%%,==&@@@@,",
"=%%@@%=<@@@XXX<>@@4<>=&&XX.XXXXX&>>XXX@%=XXX@,%@@X@%%%,<@=@@%%@<"
};
