/* XPM */
static char *result[] = {
/* columns rows colors chars-per-pixel */
"64 64 228 2 ",
"   c #000000",
".  c #0C0102",
"X  c #070D0C",
"o  c #0A0E0C",
"O  c #07060A",
"+  c #140004",
"@  c #16060C",
"#  c #09110E",
"$  c #030D17",
"%  c #1A0B12",
"&  c #0E1311",
"*  c #151C19",
"=  c #171A17",
"-  c #2A000E",
";  c #23010D",
":  c #280915",
">  c #320415",
",  c #38061A",
"<  c #28141B",
"1  c #360915",
"2  c #1E221E",
"3  c #3A1A27",
"4  c #310E20",
"5  c #1E2824",
"6  c #252827",
"7  c #36292E",
"8  c #2D3330",
"9  c #353736",
"0  c #09192D",
"q  c #44031C",
"w  c #4C001E",
"e  c #430015",
"r  c #40000F",
"t  c #490722",
"y  c #540223",
"u  c #5A0225",
"i  c #580827",
"p  c #45182A",
"a  c #551D33",
"s  c #4F1E32",
"d  c #64032A",
"f  c #6C022D",
"g  c #600C2E",
"h  c #7B0233",
"j  c #770634",
"k  c #73022F",
"l  c #4B2534",
"z  c #562839",
"x  c #453339",
"c  c #46212A",
"v  c #36423D",
"b  c #162859",
"n  c #0D2B48",
"m  c #302A57",
"M  c #163B68",
"N  c #7B1D43",
"B  c #452D41",
"V  c #493844",
"C  c #59364B",
"Z  c #692A43",
"A  c #732A48",
"S  c #6C354B",
"D  c #7A3C55",
"F  c #7A3853",
"G  c #713851",
"H  c #144572",
"J  c #484948",
"K  c #584B51",
"L  c #585858",
"P  c #79485B",
"I  c #694F5A",
"U  c #5B605E",
"Y  c #7F5A79",
"T  c #7A5A76",
"R  c #6F5262",
"E  c #5F6160",
"W  c #656666",
"Q  c #76686D",
"!  c #786C74",
"~  c #727574",
"^  c #7D7D7D",
"/  c #79767A",
"(  c #6C716F",
")  c #8E0036",
"_  c #8C033C",
"`  c #87053A",
"'  c #96003E",
"]  c #98003F",
"[  c #9A0041",
"{  c #990644",
"}  c #8F1547",
"|  c #A20145",
" . c #A7064A",
".. c #AA1755",
"X. c #942755",
"o. c #843756",
"O. c #94345C",
"+. c #86294F",
"@. c #A6265C",
"#. c #9C3D64",
"$. c #B62462",
"%. c #A53865",
"&. c #BE3770",
"*. c #C93876",
"=. c #81415A",
"-. c #8A455D",
";. c #9D4E6E",
":. c #994668",
">. c #825D7E",
",. c #9F5170",
"<. c #8C4964",
"1. c #A7446C",
"2. c #AB4771",
"3. c #B74876",
"4. c #AD5679",
"5. c #A85576",
"6. c #B6557C",
"7. c #817D7E",
"8. c #C14C7D",
"9. c #D3407F",
"0. c #343B8A",
"q. c #1B649E",
"w. c #1F70B0",
"e. c #256EBA",
"r. c #394094",
"t. c #4750B7",
"y. c #3073CD",
"u. c #475DCC",
"i. c #FD3C8D",
"p. c #BB5981",
"a. c #8F688A",
"s. c #BB6185",
"d. c #A57FA3",
"f. c #CB4E83",
"g. c #C74E82",
"h. c #D14E86",
"j. c #CC5185",
"k. c #C65785",
"l. c #D6528A",
"z. c #D8538C",
"x. c #DD5992",
"c. c #DE5791",
"v. c #FE408F",
"b. c #FD4291",
"n. c #FC4A95",
"m. c #F64E96",
"M. c #E35A95",
"N. c #EB5C99",
"B. c #E25994",
"V. c #FB5B9F",
"C. c #F8569C",
"Z. c #E35190",
"A. c #C5648C",
"S. c #C7648D",
"D. c #CB6791",
"F. c #D86896",
"G. c #DF709D",
"H. c #E46299",
"J. c #E56B9D",
"K. c #E9639C",
"L. c #E1709E",
"P. c #ED6BA2",
"I. c #F564A3",
"U. c #FD68A7",
"Y. c #FB67A6",
"T. c #E473A2",
"R. c #EC74A6",
"E. c #ED77A8",
"W. c #F575AA",
"Q. c #FB75AC",
"!. c #F479AC",
"~. c #FC79AF",
"^. c #F472A7",
"/. c #FF7CB2",
"(. c #FC7EB6",
"). c #C47CAB",
"_. c #2B8EE8",
"`. c #2D92F1",
"'. c #29A7FF",
"]. c #898A8A",
"[. c #858585",
"{. c #989798",
"}. c #988E92",
"|. c #A39B9E",
" X c #9FA09F",
".X c #AE81AA",
"XX c #A29FA1",
"oX c #A3A4A4",
"OX c #ABAAAA",
"+X c #BBBBBB",
"@X c #B6B5B5",
"#X c #B0AEAF",
"$X c #CA88BA",
"%X c #D589BC",
"&X c #FF80B6",
"*X c #FE84BC",
"=X c #F584BC",
"-X c #D894C8",
";X c #C891C3",
":X c #FD87C0",
">X c #FE8AC4",
",X c #FF8ECA",
"<X c #FF92CE",
"1X c #FE9AD7",
"2X c #E695CD",
"3X c #DDA2D7",
"4X c #FCA7E6",
"5X c #F6B1EF",
"6X c #FFBEFF",
"7X c #FDB5F5",
"8X c #C4C3C3",
"9X c #CAC9C9",
"0X c #D4D3D3",
"qX c #DCDBDC",
"wX c #D8D7D8",
"eX c #D0CFCF",
"rX c #E0DEDF",
"tX c #FFCDFF",
"yX c #FFC1FF",
"uX c #E2DFE0",
"iX c #E6E5E5",
"pX c #E8E6E7",
"aX c #ECECEC",
"sX c #E8E8E8",
"dX c #F6F6F6",
"fX c #FEFDFE",
"gX c #F8F7F7",
"hX c #F1EFF0",
/* pixels */
"dXdXdXdXdXdXgXdXdXdXgXgXgXgXgXdXdXdXdXgXdXdXdXdXdXdXdXdXdXdXdXdXdXdXdXdXdXdXdXdXgXdXdXdXdXgXdXgXdXdXdXgXdXdXdXdXgXdXdXdXgXdXdXdX",
"dXdXgXdXdXdXdXdXhXdXhXhXdXhXdXdXdXdXdXdXdXdXdXdXdXdXdXdXdXdXdXdXaXdXdXdXdXdXdXdXdXdXdXgXdXdXdXdXdXdXdXdXgXdXgXdXdXdXdXdXdXdXdXdX",
"dXgXdXdXgXfXfXdX6 & * = * & 0XfXhXdXdXdXdXdXdXdXdXdXgXfXfXfXfXfXfXfXfXfXfXdXdXdXdXdXdXdXdXdXgXgXdXdXdXdXgXdXdXdXgXdXdXdXdXdXdXdX",
"dXdXdXdXaX8X8X+X3 : < < : : |.wXdXdXgXdXgXdXdXdXdXdXwX8X8X8X8X8X8X8X8X8X8XiXdXdXhXdXdXdXgXdXdXdXdXdXdXgXdXdXgXdXdXdXdXgXdXdXdXdX",
"gXdXdXfXsX      k.M.z.c.x.H.. v fXgXdXdXdXgXfXfXfXfX~                     3XdXgXfXfXgXdXgXdXdXdXgXdXdXdXdXdXdXgXdXdXdXdXdXdXdXdX",
"dXdXfX#XQ S Z S f.z.z.l.z.z.+.I ^ 0XgXdXgXiX^ ^ ^ ^ ! Y Y Y Y >.Y Y Y Y Y / ^ ^ ^ }.dXdXdXdXdXgXdXdXdXgXdXgXdXgXfXdXdXdXdXdXdXdX",
"dXdXfXL   M.N.M.z.z.z.z.z.l.N.#.  +XfXfXfX0X        >.tX6X6X6XyXyXyXyXyXtX7       = fXfXfXdXdXdXdXdXdXdXdXdXgXdXdXdXdXdXdXdXfXdX",
"dXdXfXE   j.z.l.z.z.z.z.z.z.z.g.1.K 8 9 8 V A.S.S.A.T.>X=X:X=X=X=X=X:X=X=X;X;X$X;Xd.9 8 J gXgXdXdXgXdXdXdXdXdXdXdXdXdXdXdXdXdXdX",
"gXaXsXR : l.z.l.z.z.z.z.z.z.l.z.N.1   @ . 3 *X*X*X&X(.~.~.~.~.~./.~.~.~.~.4X7X7X7X-X% O 6 wXaXdXdXdXdXdXfXdXdXdXdXdXdXfXdXdXdXdX",
"fX0X  F x.l.z.z.z.z.z.z.z.z.l.z.N.: < &X!.(.~.~./.~././././.(./.(./.(././././././.:X5X7X3X  [.fXdXdXdXdXdXdXdXdXdXdXdXdXdXdXdXdX",
"fX0X  F M.l.l.z.z.z.z.z.z.z.z.8.O.C =.&X/.&X/././././././././././././././././././.*X1X4X2XC ! OXaXdXdXdXdXdXdXdXdXdXdXdXdXdXdXdX",
"fX0X  F B.l.z.z.z.z.z.z.z.h.B.#.  A.>X!././././././././././././././././././././.(.(.Q.Q.(.tXR   dXfXdXdXdXdXdXdXdXdXdXdXdXdXdXdX",
"fX0X  F N.l.z.z.z.z.z.z.z.z.z.k.5.J././././././././././././././././././././././././././.(.>X$Xd.K  XfXdXdXdXdXdXdXdXfXdXdXdXdXdX",
"fX0X  F x.l.l.z.z.z.z.l.z.z.z.N.:X/./././././././././././././././././././././././././././.Q.4X7X  W fXhXdXdXdXdXdXdXdXdXdXfXdXdX",
"gXaXaXL + x.c.l.l.z.z.z.z.z.^./.~./././././././././././././././././././././././././././././.(.!.4X>.* qXfXdXdXdXdXdXdXdXdXdXdXdX",
"gXdXfX[.7 1.8.l.z.z.z.z.z.z.W.(././././././.~.~.~.~././././././././.~.~.~.~.~./././././././././.6Xa.  wXfXdXdXdXdXdXdXdXdXdXdXdX",
"dXdXdXfXiX  Z I.z.z.z.z.z.l.W./././././.~.&X*X*X*X:X&X/././././././.*X*X*X*X*X/./././././././.(.6X>.. aXfXdXdXdXdXdXgXdXdXdXdXdX",
"dXgXdXgXiX[.I A j.z.z.l.B.K.~.&X/./././.&XT.o.P =.F A.(.~././././.&X:.D =.D ;./././././././././.1Xd.T ! OXfXdXdXdXdXdXdXdXgXdXgX",
"dXdXgXdXhXfX~   j.B.l.z.K.&X/././././.~.:XF.        P >X~././././.*X%       4 *X/./././././././.Q.1X6X  J fXhXgXgXdXgXgXdXdXdXdX",
"dXdXdXdXdXdXrX+X< A N.3 F *X~./././.~.*XG x 9X9X9XwX! 3 !.(.~.&X6.< #X0X9X0XoX< k.(.~./././././.~.<X5X@ L fXdXgXdXdXdXdXdXgXdXdX",
"gXdXgXdXgXdXfXdX6 C 8.  z *X~././.~.~.>Xp 2 fXfXfXfX~   R.(.~.*X;.  wXfXfXfX9X  4.*X/././././.(.~.<X7Xo L fXaXgXdXgXdXdXdXdXdXdX",
"dXdXdXdXdXdXdXhXfX].    z *X~././.&X/.*Xl 6 fXfXgXfX^   E.(.~.*X,.  rXfXdXfX0X  4.*X/./././././.~.1X7X  L fXdXdXdXdXdXdXgXdXgXdX",
"dXgXdXgXdXdXdXdXfX].  l ,.&X/./././.~.*Xl & {.wXdX#XJ   E.(./.*X;.  ^ 8XfX+X/   4.=X/./././././.~.>X1XG R  XiXfXdXdXdXgXdXgXdXdX",
"dXdXdXdXdXdXdXhXfX].  E.:X(./././././.*Xz     oXfX    @ R.(.~.:X;.    J fX9     4.*X~././././././.~.~.,X,.  9XfXdXdXdXdXdXdXdXdX",
"gXdXgXdXdXdXdXdXfX].  G.(./.(./././.~.*Xz     9 L O   @ R.(.~.*X,.    = L *     4.*XQ././././././././.*X;.  eXfXdXdXdXdXdXdXdXdX",
"dXdXgXdXdXdXdXdXfX].  G.(./././././.~.*Xz   X     O   O R.(.~.*X;.  X   O   O   4.*X(././././././././.*X,.  8XdXdXdXdXdXdXdXdXdX",
"dXdXdXdXdXdXdXhXfX].  G.&X/./././.~./.*Xz $ `.b   _.H . R.(./.*X;.  y.q.  w.w.  4.*X~./././././././././.!.T.: L fXdXdXdXdXdXfXdX",
"dXdXgXdXdXdXdXdXfX].  G.(./././.~.&X/.*Xz $ `.H 0 _.H + R.(.~.:X5.  y.w.0 y.e.  4.*X~./././././././././.(.*XC I 8XuXdXdXdXdXdXdX",
"dXgXdXdXdXdXdXdXfX].  G.&X/././.&X&X/.*Xc O t._.'.u.b   R.(.~.*X;.  r.y.'.y.r.  5.*X(.(./././././././././.~.6Xd.  8XfXhXdXdXdXdX",
"dXdXgXdXgXdXdXhXfX].  G.(./.(.Q.V.V.I.&X4.G b M H b C :.W.(./.(.F.<.m b H b m -.F.(.I.V.I./././././././.(.Q.<X%Xa.( {.dXdXdXdXdX",
"dXgXdXdXdXdXdXhXfX].  G.&X/.(.U.i.i.n.&X>XG.        -.,X/./././.(.:X<       3 >X&XQ.i.i.b././././././././.(.Q.>XtX% 2 fXdXdXdXdX",
"dXdXdXdXdXdXgXdXfX].  G.(.(.C.b.v.v.v.n.n.m.D.D.D.D.T./.(.(.(.(././.F.S.D.S.F.n.n.n.i.b.b.b.Y./././././././.(.(.:X-X.X2 +XfXdXdX",
"dXdXdXdXdXdXdXdXfX].  G.(./.C.v.b.i.b.i.i.b./.&X&X*X&X~.J.J.J.J.P./.&X&X*X(.U.i.i.i.b.i.b.b.I.(./././././././.~.Q.4X-X  {.uXdXdX",
"dXgXdXdXdXdXdXhXfX[.  E.*X~./.U.i.i.i.i.b.i.i.I.&X~.&X~.g w u e O.>X~.~.(.m.i.b.b.v.i.i.b./././././././././././.(./.=X6XV 6 fXdX",
"dXgXgXdXdXdXdXdXfX@XL <.A.(.&XQ.V.V.C.i.i.b.C.U./.&XJ.2.j k f d +.6.^./.(.Y.n.b.v.b.V.C.V././././././././././././.~.=X6XB = fXdX",
"dXdXdXdXdXdXdXdXdXfXfX# l :X~.~.(.(.Q.i.i.n.&X&X~.*XO.r ] ] ' ' h e H.(.Q.(.Q.i.i.b.(.&X(././.~././././././././././.:XyXB 2 gXdX",
"dXgXdXdXdXdXdXgXdXdXhX* z I.Q./././.~.Y.U.U././.~.*X%.w &.*.*.9.X.e H.(././.Q.U.Y.U././././.(././././././././././.~.:X6XB * fXdX",
"dXdXdXdXgXdXdXdXdXdXdX2 p z.^.~././././.&X&X/././.*X%.i j.c.l.x.%.y J.(././.(.(.(.(././.~.!.!.!.~./././././././.(.~.=X7XV 7 fXgX",
"dXdXdXgXdXdXdXdXdXdXdXX p V.z.K.(./././.~./././././.~.J.u X.K.i X.!.~./././././././.(.&XL.@   < ~.&X/./././././.~.&XD.O XXhXdXdX",
"fXdXdXdXdXdXgXdXdXdXhXL C 1.g.N././././././././././.&X~.+.X.3.j 2.*X/././././././././.&XT.c 3 l 4.G./././././././.&Xs.  #XfXhXdX",
"dXdXdXdXdXdXdXdXdXdXhXfX X  2.N.(./././././././././.~.~.>X2.> ^.&X/./././././././././././.&X*X~.  S <X~././.~.(.*X,XD.  OXfXdXdX",
"dXdXdXdXdXfXdXdXdXdXdXfX{.  2.N.K.~./././././././././././.F.2.^.(./././././.~./././././././.(.!.:.P F R././.(.F.S G P ^ 0XfXdXdX",
"dXdXdXdXdXdXdXdXdXdXdXfX{.  3.B.f.Q.(./././././././././.~.(.*X/././././././././././././././.~.!.<X-.  T.*X/.:X4.    9 fXgXdXdXdX",
"dXdXdXdXdXdXdXdXdXdXdXdXaX0X9 z N.z.K./././././././././././././././././././././././././././.&X&X4 Q 0X7 : < % K 0X9X0XdXdXdXdXdX",
"dXfXdXdXdXdXdXdXdXgXdXdXaXrX5 : 8.f.c.~.~.Q./.~./././././././././././././././././././././.~.R.D.  ( fX9 * 5 # W fXfXfXdXdXdXdXdX",
"dXdXdXdXdXdXdXfXdXdXdXfXoX        2.N.l.l.B.&X&X(.(./././././././././././././././././././.,XD     ~ fXdXdXdXdXdXdXdXdXdXdXdXgXdX",
"dXdXdXdXdXdXdXdXdXdXaXOXQ a z p   z #.l.l.z.P.P.I.P.Q.(./././././././././././././././.(.R.5.S z l R {.sXgXdXdXgXdXdXdXgXdXgXdXdX",
"dXdXdXdXdXdXdXdXdXfXfXO , I.I.1.    < M.B.c.l.l.l.f.P.&X/././././././././.~././.~./.(.:XR.  A I.I.A   iXfXdXdXdXdXdXdXdXdXdXdXdX",
"dXdXdXdXdXdXdXdXfX#XJ <.@.....} f @ @ p 3 Z z.c.z.z.M.H.M.H.H././././.~././.&X(.*XT.z l z f } ....@.:.V ].fXdXdXdXdXdXgXdXdXdXgX",
"dXdXdXdXdXdXdXaXgX^   k.*.) ] ] | >       @ j.f.j.f.h.l.l.h.l.^.~./.~.~./.!.R.R.!.A.    . [ ] ' ) $.M.. K fXaXdXgXdXdXdXdXdXdXdX",
"dXfXdXdXdXdXfXgX2 z x.{ [ [ [ [ ' _ _ [ :   . O @   o.N.B.B.M.M.P.:X*X*X:Xz   % X : _ ' ' ' [ [ ] { { l.=.  wXfXdXdXdXdXdXdXdXdX",
"dXdXdXdXdXdX0XOX3 A 9.{ ' [ ] [ ] [ [ { y - : - ;   z 2.#.:.1.:.2.s.s.p.s.3 . - ; , [ [ [ ' ' [ ] ] ] *.O., {.eXhXdXdXdXdXdXgXdX",
"dXdXdXdXdXfX/   F.*.) [ [ [ [ [ ] [ [ [ { [ | | ` .                       , f | | [ [ ] [ ] [ [ ] [ [ ) $.P.  v fXdXdXdXdXdXdXdX",
"dXdXdXgXsX~ x > @...' [ [ ] [ ] [ [ ' [ [ ] [ [ `   J {.].].].].].].}.W   , u k ) ] [ [ [ [ [ ] ] [ ] ] ..$.+.P W 0XfXdXgXdXgXdX",
"dXdXdXfXqX  ; d ) ' [ [ [ [ [ ] [ ] [ [ [ ] ] [ } X [.gXfXfXfXfXfXfXfX@X  q y w h ] ' [ [ [ [ ] [ [ [ [ ' ) Z.:.  +XfXdXdXdXdXdX",
"dXdXfX^ = t t y ' [ [ ] [ ' [ [ [ ] [ ] | [  .e % 3XqXdXdXdXdXaXdXhXdXiXeX7 . u u d u ` [ [ [ [ [ ] ] [ ] [ | @.6.x U fXdXgXdXdX",
"dXdXfXE   i y y ` ' [ [ ' [ [ [ [ ' ' ] _ j ` p v dXfXdXdXdXdXdXdXdXdXgXfXU < t q t w k _ _ ' [ [ [ [ [ [ [ ) ..Z.; 8 fXdXdXdXdX",
"dXdXfXL   y y y w k | [ [ [ { [ [ | |  .-     ].fXhXdXdXdXdXdXdXdXdXdXdXhXfX@X      y u u w h | ' ] [ [ [ ] | |  .. 8 fXdXdXdXdX",
"dXdXfXoXL , > > w d h k h h h h h d i y I ( L 8XfXdXdXdXdXdXdXdXdXgXdXdXdXfXwXW ( L > > > w f h ' [ ] ] ' ' d i u K ].gXdXdXdXdX",
"dXdXdXfXaX      w y y y w y y y u       OXfXfXfXdXdXdXdXdXfXdXdXdXdXdXgXdXdXgXfXfXwX      y y y [ { | { | { .     8XfXdXdXdXdXdX",
"dXdXdXdXaX#X#XoX: + + + + + + + . [.@XOXqXdXdXdXdXdXdXdXdXfXdXdXdXgXdXdXdXdXdXhXdXiXOX@X{.+ + + - - - - - - }.@XOXiXdXdXdXdXdXgX",
"dXdXdXdXdXfXfXdX5 O & o o o & & O 8XfXfXfXdXdXdXdXdXdXdXdXdXdXdXdXdXdXdXdXdXdXdXdXgXfXfXaX= o o o X X # X X wXfXfXgXdXdXgXdXdXdX",
"dXdXdXdXdXdXdXdXsXiXpXpXpXpXpXpXiXhXdXhXdXdXdXdXdXdXdXgXdXdXdXdXdXdXdXgXgXdXgXdXdXdXhXdXhXpXiXiXsXsXsXpXsXsXhXdXdXdXgXdXgXdXgXdX",
"gXdXdXdXdXdXdXdXgXfXgXfXgXfXgXfXfXdXdXdXdXdXdXdXgXdXdXdXgXdXdXdXgXdXdXdXdXdXdXdXdXdXgXgXgXfXfXfXgXfXgXfXfXgXdXdXdXdXdXdXdXdXgXdX"
};
